# ProBuilder 5.0.4
# https://unity3d.com/unity/features/worldbuilding/probuilder
# 2-7-2022 11:50:42

mtllib ./AngleBox.mtl
o AngleBox

g AngleBox
v 1.000002 -0.8395428 3.872313
v -1 -0.8395428 3.872313
v 1 0 4
v -1 0 4
v -1 -0.2499998 -5.036299E-08
v -1 0 0
v 1 -0.2499998 -5.036299E-08
v 1 0 0

vt 1.000002 -0.2477515
vt -1 -0.2477515
vt 1 0.6014457
vt -1 0.6014457
vt 3.872313 -0.8395428
vt -5.036299E-08 -0.2499998
vt 4 0
vt 0 0
vt 1 -0.2499998
vt -1 -0.2499998
vt 1 0
vt -1 0
vt -3.872314 -0.8395428
vt -4 -9.922717E-14
vt -1 4
vt 1 4
vt 1 0.03762775
vt -1 0.03762775
vt 1.000002 3.954562
vt -1 3.954562

vn 0 -0.1503614 0.9886311
vn -1 0 0
vn 0 2.014522E-07 -1
vn 1 9.922736E-14 -4.925605E-07
vn 0 1 0
vn 0 -0.9886083 -0.1505114

usemtl M_Unit-White
f 3/3/1 4/4/1 2/2/1 1/1/1
f 4/7/2 6/8/2 5/6/2 2/5/2
f 6/11/3 8/12/3 7/10/3 5/9/3
f 8/8/4 3/14/4 1/13/4 7/6/4
f 8/12/5 6/11/5 4/16/5 3/15/5
f 1/19/6 2/20/6 5/18/6 7/17/6

