# ProBuilder 5.0.4
# https://unity3d.com/unity/features/worldbuilding/probuilder
# 2-7-2022 11:59:23

mtllib ./Stairs1UnitStep.mtl
o Stairs1UnitStep

g Stairs (1unit)
v -2 0 0
v 0 0 0
v -2 1 0
v 0 1 0
v -2 1 1
v 0 1 1
v -2 2 1
v 0 2 1
v -2 2 2
v 0 2 2
v -2 3 2
v 0 3 2
v -2 3 3
v 0 3 3
v 0 0 1
v 0 0 2
v 0 0 3
v -2 0 1
v -2 0 2
v -2 0 3

vt 2 0
vt 0 0
vt 2 1
vt 0 1
vt 2 2
vt 0 2
vt 2 3
vt 0 3
vt -1 0
vt -1 1
vt -2 0
vt -2 2
vt -1 2
vt -3 0
vt -3 3
vt -2 3
vt 1 0
vt 1 1
vt 1 2
vt 3 0
vt 3 3
vt -2 1

vn 0 0 -1
vn 0 1 0
vn 1 0 0
vn -1 0 0
vn 0 0 1
vn 0 -1 0

usemtl M_Unit-White
f 6/10/3 8/13/3 10/12/3
f 10/12/3 12/16/3 14/15/3
f 9/5/4 7/19/4 5/18/4
f 13/21/4 11/7/4 9/5/4
f 20/16/6 19/12/6 17/8/6
f 19/12/6 16/6/6 17/8/6
f 19/12/6 18/22/6 16/6/6
f 18/22/6 15/4/6 16/6/6
f 18/22/6 1/11/6 15/4/6
f 1/11/6 2/2/6 15/4/6
f 4/4/1 2/2/1 1/1/1
f 1/1/1 3/3/1 4/4/1
f 6/4/2 4/2/2 3/1/2
f 3/1/2 5/3/2 6/4/2
f 8/6/1 6/4/1 5/3/1
f 5/3/1 7/5/1 8/6/1
f 10/6/2 8/4/2 7/3/2
f 7/3/2 9/5/2 10/6/2
f 12/8/1 10/6/1 9/5/1
f 9/5/1 11/7/1 12/8/1
f 14/8/2 12/6/2 11/5/2
f 11/5/2 13/7/2 14/8/2
f 6/10/3 15/9/3 2/2/3
f 2/2/3 4/4/3 6/10/3
f 10/12/3 16/11/3 15/9/3
f 15/9/3 6/10/3 10/12/3
f 14/15/3 17/14/3 16/11/3
f 16/11/3 10/12/3 14/15/3
f 3/4/4 1/2/4 18/17/4
f 18/17/4 5/18/4 3/4/4
f 5/18/4 18/17/4 19/1/4
f 19/1/4 9/5/4 5/18/4
f 9/5/4 19/1/4 20/20/4
f 20/20/4 13/21/4 9/5/4
f 13/16/5 20/11/5 17/2/5
f 17/2/5 14/8/5 13/16/5

