# ProBuilder 5.0.4
# https://unity3d.com/unity/features/worldbuilding/probuilder
# 2-7-2022 12:16:28

mtllib ./Plane_(-28.25x0x-32).mtl
o Plane_(-28.25x0x-32)

g Plane (1)
v 0 0.0001 0
v 0 0.0001 15.5
v -29.125 0.0001 0
v -29.125 0.0001 15.5
v 0 0.0001 31
v -29.125 0.0001 31
v -58.25 0.0001 0
v -58.25 0.0001 15.5
v -58.25 0.0001 31

vt 0 0
vt 0 15.5
vt 29.125 0
vt 29.125 15.5
vt 0 31
vt 29.125 31
vt 58.25 0
vt 58.25 15.5
vt 58.25 31

vn 0 1 0

usemtl M_Unit-White
f 3/3/1 4/4/1 2/2/1 1/1/1
f 4/4/1 6/6/1 5/5/1 2/2/1
f 7/7/1 8/8/1 4/4/1 3/3/1
f 8/8/1 9/9/1 6/6/1 4/4/1

