# ProBuilder 5.0.4
# https://unity3d.com/unity/features/worldbuilding/probuilder
# 2-7-2022 12:11:20

mtllib ./ThinBridge.mtl
o ThinBridge

g Cube (11)
v 8.25 -0.125 -0.0002641678
v -0.5 -0.125 0.375
v 8.25 0.125 0.000161171
v -0.5 0.125 0.375
v -0.5 -0.125 -0.375
v -0.5 0.125 -0.375
v 8.25 -0.125 -0.002907753

vt 8.242435 -0.1243994
vt -0.5156088 -0.1243994
vt 8.242416 0.125601
vt -0.5156088 0.1256002
vt 0.375 -0.125
vt -0.375 -0.125
vt 0.375 0.125
vt -0.375 0.125
vt 0.5154809 -0.125
vt -8.242427 -0.125
vt 0.5154809 0.125
vt -8.242556 0.125
vt 0.002907753 -0.125
vt 0.0002641678 -0.125
vt -0.0001239777 0.125
vt -8.25 0.000161171
vt 0.5 0.375
vt 0.5 -0.375
vt 8.25 -0.002907753
vt -0.5 -0.375
vt 8.25 -0.0002641678
vt -0.5 0.375

vn 0.04284789 -0.00169979 0.9990802
vn 0.04282368 -0.0008498951 0.999082
vn 0.04279947 0 0.9990837
vn -1 0 0
vn 0.04248643 0 -0.999097
vn 0.04265763 0.006057452 -0.999053
vn 0.04282882 0.0121149 -0.999009
vn 1 0 0
vn 0.5 0 0
vn 0 0 0
vn 0 1 0
vn 0 -1 0

usemtl M_Unit-Black
f 3/3/2 4/4/3 2/2/2 1/1/1
f 4/7/4 6/8/4 5/6/4 2/5/4
f 6/11/6 3/12/7 7/10/6 5/9/5
f 3/15/9 3/15/10 1/14/9 7/13/8
f 3/16/11 6/18/11 4/17/11 3/16/11
f 1/21/12 2/22/12 5/20/12 7/19/12

