# This file uses meters as units for non-parametric coordinates.

mtllib anvil.mtl
g default
v 78.866104 -7.679559 18.270267
v 133.506287 -7.679559 18.270267
v 64.727875 13.533456 18.270267
v 152.690140 13.533456 18.270267
v 64.727875 13.533456 -18.270267
v 152.690140 13.533456 -18.270267
v 78.866104 -7.679559 -18.270267
v 133.506287 -7.679559 -18.270267
v 51.335712 13.533456 -0.031352
v 152.690140 13.533456 -0.031352
v 133.506287 -7.679559 -0.031352
v 70.745300 -7.679559 -0.031352
v 76.155533 -3.612622 18.270267
v 135.301376 -3.612622 18.270267
v 135.301376 -3.612622 -0.031352
v 135.301376 -3.612622 -18.270267
v 76.155533 -3.612622 -18.270267
v 67.024109 -3.612622 -0.031352
v 71.488098 3.390403 -18.270267
v 143.138519 3.390403 -18.270267
v 143.138519 3.390403 -0.031352
v 143.138519 3.390402 18.270267
v 71.488098 3.390402 18.270267
v 60.616451 3.390402 -0.031352
v 67.561768 9.281478 -18.270267
v 152.690140 9.281478 -18.270267
v 152.690140 9.281478 -0.031352
v 152.690140 9.281477 18.270267
v 67.561768 9.281477 18.270267
v 55.226208 9.281477 -0.031352
v 77.689377 -45.489780 13.133705
v 126.562210 -45.489780 13.133705
v 82.164726 -33.857338 13.133705
v 122.086861 -33.857338 13.133705
v 82.164726 -33.857338 -13.133705
v 122.086861 -33.857338 -13.133705
v 77.689377 -45.489780 -13.133705
v 126.562210 -45.489780 -13.133705
v 116.667755 -45.489780 13.133705
v 116.667755 -45.489780 -13.133705
v 116.667755 -30.604153 -13.133705
v 116.667755 -30.604153 13.133705
v 101.788231 -41.323269 13.133705
v 101.788231 -41.323269 -13.133705
v 101.788231 -30.604153 -13.133705
v 101.788231 -30.604153 13.133705
v 87.704430 -45.489780 13.133705
v 87.704430 -45.489780 -13.133705
v 87.704430 -30.604153 -13.133705
v 87.704430 -30.604153 13.133705
v 94.384659 -42.745968 13.133705
v 94.384659 -30.604153 13.133705
v 94.384659 -30.604153 -13.133705
v 94.384659 -42.745968 -13.133705
v 109.562202 -42.745968 13.133705
v 109.562202 -30.604153 13.133705
v 109.562202 -30.604153 -13.133705
v 109.562202 -42.745968 -13.133705
v 90.135750 -31.985535 9.567206
v 114.115837 -31.985535 9.567206
v 90.135750 -5.373310 9.567206
v 114.115837 -5.373310 9.567206
v 90.135750 -5.373310 -9.567206
v 114.115837 -5.373310 -9.567206
v 90.135750 -31.985535 -9.567206
v 114.115837 -31.985535 -9.567206
v 92.307701 -27.689789 9.567206
v 112.516914 -27.689789 9.567206
v 112.516914 -27.689789 -9.567206
v 92.307701 -27.689789 -9.567206
v 92.307701 -15.384840 -9.567206
v 112.516914 -15.384840 -9.567206
v 112.516914 -15.384840 9.567206
v 92.307701 -15.384840 9.567206
vt 0.375000 0.000000
vt 0.625000 0.000000
vt 0.375000 0.250000
vt 0.625000 0.250000
vt 0.375000 0.500000
vt 0.625000 0.500000
vt 0.375000 0.750000
vt 0.625000 0.750000
vt 0.375000 1.000000
vt 0.625000 1.000000
vt 0.875000 0.000000
vt 0.875000 0.250000
vt 0.125000 0.000000
vt 0.125000 0.250000
vt 0.249786 0.250000
vt 0.375000 0.375215
vt 0.625000 0.375215
vt 0.750214 0.250000
vt 0.625000 0.874785
vt 0.750214 0.000000
vt 0.249786 0.000000
vt 0.375000 0.874785
vt 0.375000 0.047930
vt 0.625000 0.047930
vt 0.750214 0.047930
vt 0.625000 0.702070
vt 0.875000 0.047930
vt 0.125000 0.047930
vt 0.375000 0.702070
vt 0.249786 0.047930
vt 0.125000 0.130462
vt 0.375000 0.619538
vt 0.625000 0.619538
vt 0.875000 0.130462
vt 0.750214 0.130462
vt 0.625000 0.130462
vt 0.375000 0.130462
vt 0.249786 0.130462
vt 0.125000 0.199890
vt 0.375000 0.550110
vt 0.625000 0.550110
vt 0.875000 0.199890
vt 0.750214 0.199890
vt 0.625000 0.199890
vt 0.375000 0.199890
vt 0.249786 0.199890
vt 0.574387 0.250000
vt 0.574387 0.000000
vt 0.625000 0.000000
vt 0.625000 0.250000
vt 0.574387 0.500000
vt 0.625000 0.500000
vt 0.574387 0.750000
vt 0.625000 0.750000
vt 0.574387 1.000000
vt 0.625000 1.000000
vt 0.875000 0.000000
vt 0.875000 0.250000
vt 0.125000 0.000000
vt 0.375000 0.000000
vt 0.375000 0.250000
vt 0.125000 0.250000
vt 0.498273 1.000000
vt 0.498273 0.750000
vt 0.538040 0.750000
vt 0.538040 1.000000
vt 0.498273 0.500000
vt 0.538040 0.500000
vt 0.498273 0.250000
vt 0.538040 0.250000
vt 0.498273 0.000000
vt 0.538040 0.000000
vt 0.426230 1.000000
vt 0.426230 0.750000
vt 0.460402 0.750000
vt 0.460402 1.000000
vt 0.426230 0.500000
vt 0.460402 0.500000
vt 0.426230 0.250000
vt 0.460402 0.250000
vt 0.426230 0.000000
vt 0.460402 0.000000
vt 0.375000 0.750000
vt 0.375000 1.000000
vt 0.375000 0.500000
vt 0.375000 0.040355
vt 0.625000 0.040355
vt 0.625000 0.155950
vt 0.375000 0.155950
vt 0.375000 0.250000
vt 0.625000 0.250000
vt 0.625000 0.500000
vt 0.375000 0.500000
vt 0.375000 0.594050
vt 0.625000 0.594050
vt 0.625000 0.709645
vt 0.375000 0.709645
vt 0.375000 0.750000
vt 0.625000 0.750000
vt 0.625000 1.000000
vt 0.375000 1.000000
vt 0.875000 0.040355
vt 0.875000 0.155950
vt 0.125000 0.040355
vt 0.125000 0.155950
vt 0.375000 0.000000
vt 0.625000 0.000000
vt 0.875000 0.000000
vt 0.125000 0.000000
vt 0.875000 0.250000
vt 0.125000 0.250000
vn 0.000000 0.000000 1.000000
vn 0.000000 0.000000 1.000000
vn 0.000000 0.000000 1.000000
vn 0.000000 0.000000 1.000000
vn 0.000000 1.000000 -0.000000
vn 0.000000 1.000000 0.000000
vn 0.000000 1.000000 0.000000
vn 0.000000 1.000000 0.000000
vn 0.000000 0.000000 -1.000000
vn 0.000000 0.000000 -1.000000
vn 0.000000 0.000000 -1.000000
vn 0.000000 0.000000 -1.000000
vn 0.000000 -1.000000 -0.000000
vn 0.000000 -1.000000 -0.000000
vn 0.000000 -1.000000 0.000000
vn 0.000000 -1.000000 0.000000
vn 0.595631 -0.803258 0.000000
vn 0.595631 -0.803258 -0.000000
vn 0.754397 -0.656418 -0.000000
vn 0.754397 -0.656418 0.000000
vn -0.727336 -0.575132 -0.374440
vn -0.784401 -0.620255 -0.000036
vn -0.784401 -0.620254 0.000002
vn -0.713850 -0.564467 -0.414481
vn 0.000000 1.000000 -0.000000
vn 0.000000 1.000000 -0.000000
vn 0.754397 -0.656418 -0.000000
vn 0.595631 -0.803258 -0.000000
vn 0.000000 -1.000000 0.000000
vn 0.000000 -1.000000 0.000000
vn -0.714266 -0.564796 0.413316
vn -0.727682 -0.575405 0.373347
vn 0.000000 0.000000 1.000000
vn 0.000000 0.000000 1.000000
vn 0.914847 -0.403801 0.000000
vn 0.914847 -0.403801 0.000000
vn 0.914847 -0.403801 0.000000
vn 0.000000 0.000000 -1.000000
vn 0.000000 0.000000 -1.000000
vn -0.735423 -0.581528 -0.347819
vn -0.784400 -0.620255 -0.000082
vn -0.735728 -0.581768 0.346771
vn 0.000000 0.000000 -1.000000
vn 0.000000 0.000000 -1.000000
vn 0.728013 -0.685563 0.000000
vn 0.728013 -0.685563 -0.000000
vn 0.728013 -0.685564 -0.000000
vn 0.000000 0.000000 1.000000
vn 0.000000 0.000000 1.000000
vn -0.697396 -0.551456 0.457750
vn -0.784401 -0.620255 0.000018
vn -0.696897 -0.551061 -0.458984
vn 0.000000 0.000000 -1.000000
vn 0.000000 0.000000 -1.000000
vn 1.000000 0.000000 0.000000
vn 1.000000 0.000000 0.000000
vn 1.000000 0.000000 0.000000
vn 0.000000 0.000000 1.000000
vn 0.000000 0.000000 1.000000
vn -0.784400 -0.620255 0.000231
vn -0.686915 -0.543169 0.482820
vn -0.686364 -0.542734 -0.484091
vn 0.000000 0.000000 1.000000
vn 0.000000 0.000000 1.000000
vn 0.000000 0.000000 1.000000
vn 0.000000 0.000000 1.000000
vn 0.251400 0.967883 0.000000
vn 0.251400 0.967883 0.000000
vn 0.514696 0.857373 0.000000
vn 0.514696 0.857373 0.000000
vn 0.000000 0.000000 -1.000000
vn 0.000000 0.000000 -1.000000
vn 0.000000 0.000000 -1.000000
vn 0.000000 0.000000 -1.000000
vn -0.159339 -0.987224 0.000000
vn -0.159339 -0.987224 0.000000
vn 0.000000 -1.000000 0.000000
vn 0.000000 -1.000000 0.000000
vn 0.933310 0.359072 0.000000
vn 0.933310 0.359072 0.000000
vn 0.933310 0.359072 0.000000
vn 0.933310 0.359072 0.000000
vn -0.933310 0.359072 0.000000
vn -0.933310 0.359072 0.000000
vn -0.933310 0.359072 0.000000
vn -0.933310 0.359072 0.000000
vn -0.000000 -1.000000 0.000000
vn -0.000000 -1.000000 0.000000
vn -0.269645 -0.962960 0.000000
vn -0.269645 -0.962960 0.000000
vn 0.000000 0.000000 -1.000000
vn 0.000000 0.000000 -1.000000
vn -0.000000 0.000000 -1.000000
vn -0.000000 0.000000 -1.000000
vn 0.000000 1.000000 0.000000
vn 0.000000 1.000000 0.000000
vn 0.000000 1.000000 0.000000
vn 0.000000 1.000000 0.000000
vn 0.000000 0.000000 1.000000
vn 0.000000 0.000000 1.000000
vn -0.000000 0.000000 1.000000
vn -0.000000 0.000000 1.000000
vn 0.162171 -0.986763 0.000000
vn 0.162171 -0.986763 0.000000
vn 0.283684 -0.958918 0.000000
vn 0.283684 -0.958918 0.000000
vn -0.000000 0.000000 -1.000000
vn -0.000000 0.000000 -1.000000
vn 0.000000 0.000000 -1.000000
vn 0.000000 0.000000 -1.000000
vn -0.257259 0.966342 0.000000
vn -0.257259 0.966342 0.000000
vn 0.000000 1.000000 0.000000
vn 0.000000 1.000000 0.000000
vn 0.000000 0.000000 1.000000
vn 0.000000 0.000000 1.000000
vn 0.000000 0.000000 1.000000
vn 0.000000 0.000000 1.000000
vn 0.000000 -1.000000 0.000000
vn 0.000000 -1.000000 0.000000
vn 0.000000 0.000000 -1.000000
vn 0.000000 0.000000 -1.000000
vn -0.506388 0.862306 0.000000
vn -0.506388 0.862306 0.000000
vn 0.000000 0.000000 1.000000
vn 0.000000 0.000000 1.000000
vn 0.000000 0.000000 1.000000
vn 0.000000 0.000000 1.000000
vn 0.000000 0.000000 1.000000
vn 0.000000 0.000000 1.000000
vn 0.000000 1.000000 0.000000
vn 0.000000 1.000000 0.000000
vn 0.000000 1.000000 0.000000
vn 0.000000 1.000000 0.000000
vn 0.000000 0.000000 -1.000000
vn 0.000000 0.000000 -1.000000
vn 0.000000 0.000000 -1.000000
vn 0.000000 0.000000 -1.000000
vn 0.000000 -1.000000 0.000000
vn 0.000000 -1.000000 0.000000
vn 0.000000 -1.000000 0.000000
vn 0.000000 -1.000000 0.000000
vn 0.995394 0.095873 0.000000
vn 0.995394 0.095873 0.000000
vn 0.997443 -0.071465 0.000000
vn 0.997443 -0.071465 0.000000
vn -0.991550 0.129729 0.000000
vn -0.991550 0.129729 0.000000
vn -0.995297 -0.096867 0.000000
vn -0.995297 -0.096867 0.000000
vn 0.000000 0.000000 1.000000
vn 0.000000 0.000000 1.000000
vn 0.937186 0.348831 0.000000
vn 0.937186 0.348831 0.000000
vn 0.000000 0.000000 -1.000000
vn 0.000000 0.000000 -1.000000
vn -0.892418 0.451210 0.000000
vn -0.892418 0.451210 0.000000
vn 0.000000 0.000000 -1.000000
vn 0.000000 0.000000 -1.000000
vn 0.987486 -0.157710 0.000000
vn 0.987486 -0.157710 0.000000
vn 0.000000 0.000000 1.000000
vn 0.000000 0.000000 1.000000
vn -0.977267 -0.212013 0.000000
vn -0.977267 -0.212013 0.000000
s 1
g pCube1
usemtl initialShadingGroup
f 13/23/1 14/24/2 22/36/3 23/37/4
s 2
f 9/16/5 10/17/6 6/6/7 5/5/8
s 3
f 19/32/9 20/33/10 16/26/11 17/29/12
s 4
f 7/7/13 8/8/14 11/19/15 12/22/16
s 5
f 20/34/17 21/35/18 15/25/19 16/27/20
s 6
f 17/28/21 18/30/22 24/38/23 19/31/24
s 2
f 3/3/25 4/4/26 10/17/6 9/16/5
s 5
f 14/24/27 15/25/19 21/35/18 22/36/28
s 4
f 12/22/16 11/19/15 2/10/29 1/9/30
s 6
f 23/37/31 24/38/23 18/30/22 13/23/32
s 1
f 1/1/33 2/2/34 14/24/2 13/23/1
s 5
f 2/2/35 11/20/36 15/25/19 14/24/27
f 16/27/20 15/25/19 11/20/36 8/11/37
s 3
f 17/29/12 16/26/11 8/8/38 7/7/39
s 6
f 7/13/40 12/21/41 18/30/22 17/28/21
f 13/23/32 18/30/22 12/21/41 1/1/42
s 3
f 25/40/43 26/41/44 20/33/10 19/32/9
s 5
f 26/42/45 27/43/46 21/35/18 20/34/17
f 22/36/28 21/35/18 27/43/46 28/44/47
s 1
f 23/37/4 22/36/3 28/44/48 29/45/49
s 6
f 29/45/50 30/46/51 24/38/23 23/37/31
f 19/31/24 24/38/23 30/46/51 25/39/52
s 3
f 5/5/53 6/6/54 26/41/44 25/40/43
s 5
f 10/18/55 27/43/46 26/42/45 6/12/56
f 28/44/47 27/43/46 10/18/55 4/4/57
s 1
f 29/45/49 28/44/48 4/4/58 3/3/59
s 6
f 9/15/60 30/46/51 29/45/50 3/3/61
f 25/39/52 30/46/51 9/15/60 5/14/62
s 7
f 42/47/63 39/48/64 32/49/65 34/50/66
s 8
f 41/51/67 42/47/68 34/50/69 36/52/70
s 9
f 40/53/71 41/51/72 36/52/73 38/54/74
s 10
f 39/55/75 40/53/76 38/54/77 32/56/78
s off
f 32/49/79 38/57/80 36/58/81 34/50/82
f 37/59/83 31/60/84 33/61/85 35/62/86
s 10
f 43/63/87 44/64/88 58/65/89 55/66/90
s 9
f 44/64/91 45/67/92 57/68/93 58/65/94
s 8
f 45/67/95 46/69/96 56/70/97 57/68/98
s 7
f 46/69/99 43/71/100 55/72/101 56/70/102
s 10
f 47/73/103 48/74/104 54/75/105 51/76/106
s 9
f 48/74/107 49/77/108 53/78/109 54/75/110
s 8
f 49/77/111 50/79/112 52/80/113 53/78/114
s 7
f 50/79/115 47/81/116 51/82/117 52/80/118
s 10
f 37/83/119 48/74/104 47/73/103 31/84/120
s 9
f 35/85/121 49/77/108 48/74/107 37/83/122
s 8
f 33/61/123 50/79/112 49/77/111 35/85/124
s 7
f 31/60/125 47/81/116 50/79/115 33/61/126
f 52/80/118 51/82/117 43/71/100 46/69/99
s 8
f 53/78/114 52/80/113 46/69/96 45/67/95
s 9
f 54/75/110 53/78/109 45/67/92 44/64/91
s 10
f 51/76/106 54/75/105 44/64/88 43/63/87
s 7
f 56/70/102 55/72/101 39/48/64 42/47/63
s 8
f 57/68/98 56/70/97 42/47/68 41/51/67
s 9
f 58/65/94 57/68/93 41/51/72 40/53/71
s 10
f 55/66/90 58/65/89 40/53/76 39/55/75
s 19
f 67/86/127 68/87/128 73/88/129 74/89/130
s off
f 61/90/131 62/91/132 64/92/133 63/93/134
s 20
f 71/94/135 72/95/136 69/96/137 70/97/138
s off
f 65/98/139 66/99/140 60/100/141 59/101/142
s 21
f 68/87/143 69/102/144 72/103/145 73/88/146
s 22
f 70/104/147 67/86/148 74/89/149 71/105/150
s 19
f 59/106/151 60/107/152 68/87/128 67/86/127
s 21
f 60/107/153 66/108/154 69/102/144 68/87/143
s 20
f 70/97/138 69/96/137 66/99/155 65/98/156
s 22
f 65/109/157 59/106/158 67/86/148 70/104/147
s 20
f 63/93/159 64/92/160 72/95/136 71/94/135
s 21
f 73/88/146 72/103/145 64/110/161 62/91/162
s 19
f 74/89/130 73/88/129 62/91/163 61/90/164
s 22
f 71/105/150 74/89/149 61/90/165 63/111/166
