# This file uses centimeters as units for non-parametric coordinates.

mtllib gun.mtl
g default
v -4.643482 -0.286673 0.975037
v -4.585861 -0.286673 0.975037
v -4.643482 -0.200899 0.975037
v -4.585861 -0.200899 0.975037
v -4.643482 -0.200899 0.893829
v -4.585861 -0.200899 0.893829
v -4.643482 -0.286673 0.893829
v -4.585861 -0.286673 0.893829
v -4.592003 -0.300604 0.988220
v -4.300781 -0.300604 0.988220
v -4.592003 -0.186968 0.988220
v -4.300781 -0.186968 0.988220
v -4.592003 -0.186968 0.880646
v -4.300781 -0.186968 0.880646
v -4.592003 -0.300604 0.880646
v -4.300781 -0.300604 0.880646
v -4.475403 -0.300604 0.988220
v -4.475403 -0.300604 0.880646
v -4.475403 -0.186968 0.880646
v -4.475403 -0.186968 0.988220
v -4.423279 -0.300604 0.988220
v -4.423279 -0.186968 0.988220
v -4.423279 -0.186968 0.880646
v -4.423279 -0.300604 0.880646
v -4.592003 -0.331944 0.880646
v -4.475403 -0.341427 0.880646
v -4.475403 -0.341427 0.988220
v -4.592003 -0.331944 0.988220
v -4.423279 -0.341427 0.880646
v -4.423279 -0.341427 0.988220
v -4.307312 -0.329800 0.880646
v -4.307312 -0.329800 0.988220
v -4.478592 -0.340561 0.979156
v -4.413528 -0.340561 0.979156
v -4.478592 -0.325768 0.979156
v -4.413528 -0.325768 0.979156
v -4.478592 -0.325768 0.889359
v -4.413528 -0.325768 0.889359
v -4.478592 -0.340561 0.889359
v -4.413528 -0.340561 0.889359
v -5.116913 -0.270100 0.959351
v -4.886616 -0.270100 0.959351
v -5.116913 -0.217472 0.959351
v -4.886616 -0.217472 0.959351
v -5.116913 -0.217472 0.909531
v -4.886616 -0.217472 0.909531
v -5.116913 -0.270100 0.909531
v -4.886616 -0.270100 0.909531
v -4.610558 -0.395390 0.975189
v -4.528175 -0.429626 0.975189
v -4.570419 -0.298817 0.975189
v -4.488037 -0.333054 0.975189
v -4.570419 -0.298817 0.898148
v -4.488037 -0.333054 0.898148
v -4.610558 -0.395390 0.898148
v -4.528175 -0.429626 0.898148
v -4.671612 -0.460068 0.898148
v -4.589226 -0.494308 0.898148
v -4.589226 -0.494308 0.975189
v -4.671612 -0.460068 0.975189
v -4.893566 -0.300604 0.988220
v -4.642612 -0.300604 0.988220
v -4.893566 -0.186968 0.988220
v -4.642612 -0.186968 0.988220
v -4.893566 -0.186968 0.880661
v -4.642612 -0.186968 0.880661
v -4.893566 -0.300604 0.880661
v -4.642612 -0.300604 0.880661
v -4.315582 -0.277760 0.970581
v -4.242844 -0.277760 0.970581
v -4.315582 -0.205031 0.970581
v -4.242844 -0.205031 0.970581
v -4.315582 -0.205031 0.897873
v -4.242844 -0.205031 0.897873
v -4.315582 -0.277760 0.897873
v -4.242844 -0.277760 0.897873
v -4.313400 -0.461426 0.962433
v -4.243622 -0.419052 0.962433
v -4.425110 -0.277481 0.962433
v -4.355331 -0.235110 0.962433
v -4.425110 -0.277481 0.899826
v -4.355331 -0.235110 0.899826
v -4.313400 -0.461426 0.899826
v -4.243622 -0.419052 0.899826
v -4.244308 -0.295282 0.983734
v -3.985443 -0.367954 0.983734
v -4.244308 -0.192291 0.983734
v -3.985443 -0.192291 0.983734
v -4.244308 -0.192291 0.884109
v -3.985443 -0.192291 0.884109
v -4.244308 -0.295282 0.884109
v -3.985443 -0.367954 0.884109
v -4.138046 -0.295282 0.983734
v -4.138046 -0.295282 0.884109
v -4.138046 -0.192291 0.884109
v -4.138046 -0.192291 0.983734
vt 0.375000 0.000000
vt 0.625000 0.000000
vt 0.375000 0.250000
vt 0.625000 0.250000
vt 0.375000 0.500000
vt 0.625000 0.500000
vt 0.375000 0.750000
vt 0.625000 0.750000
vt 0.375000 1.000000
vt 0.625000 1.000000
vt 0.875000 0.000000
vt 0.875000 0.250000
vt 0.475098 0.250000
vt 0.475098 0.000000
vt 0.519844 0.000000
vt 0.519844 0.250000
vt 0.475098 0.500000
vt 0.519844 0.500000
vt 0.475098 0.750000
vt 0.519844 0.750000
vt 0.475098 1.000000
vt 0.519844 1.000000
vt 0.625000 0.000000
vt 0.875000 0.000000
vt 0.875000 0.250000
vt 0.625000 0.250000
vt 0.125000 0.000000
vt 0.375000 0.000000
vt 0.375000 0.250000
vt 0.125000 0.250000
vt 0.375000 0.750000
vt 0.475098 0.750000
vt 0.475098 1.000000
vt 0.375000 1.000000
vt 0.375000 0.500000
vt 0.375000 0.750000
vt 0.625000 0.500000
vt 0.625000 0.750000
vt 0.519844 1.000000
vt 0.519844 0.750000
vt 0.625000 0.750000
vt 0.625000 1.000000
vt 0.375000 1.000000
vt 0.625000 1.000000
vt 0.375000 0.000000
vt 0.625000 0.000000
vt 0.625000 0.250000
vt 0.375000 0.250000
vt 0.625000 0.500000
vt 0.375000 0.500000
vt 0.625000 0.750000
vt 0.375000 0.750000
vt 0.625000 1.000000
vt 0.375000 1.000000
vt 0.875000 0.000000
vt 0.875000 0.250000
vt 0.125000 0.000000
vt 0.125000 0.250000
vt 0.375000 0.000000
vt 0.625000 0.000000
vt 0.625000 0.250000
vt 0.375000 0.250000
vt 0.625000 0.500000
vt 0.375000 0.500000
vt 0.625000 0.750000
vt 0.375000 0.750000
vt 0.625000 1.000000
vt 0.375000 1.000000
vt 0.875000 0.000000
vt 0.875000 0.250000
vt 0.125000 0.000000
vt 0.125000 0.250000
vt 0.375000 0.000000
vt 0.625000 0.000000
vt 0.625000 0.250000
vt 0.375000 0.250000
vt 0.625000 0.500000
vt 0.375000 0.500000
vt 0.625000 0.750000
vt 0.375000 0.750000
vt 0.375000 0.750000
vt 0.625000 0.750000
vt 0.625000 1.000000
vt 0.375000 1.000000
vt 0.875000 0.000000
vt 0.875000 0.250000
vt 0.125000 0.000000
vt 0.125000 0.250000
vt 0.625000 1.000000
vt 0.375000 1.000000
vt 0.375000 0.000000
vt 0.625000 0.000000
vt 0.625000 0.250000
vt 0.375000 0.250000
vt 0.625000 0.500000
vt 0.375000 0.500000
vt 0.625000 0.750000
vt 0.375000 0.750000
vt 0.625000 1.000000
vt 0.375000 1.000000
vt 0.875000 0.000000
vt 0.875000 0.250000
vt 0.125000 0.000000
vt 0.125000 0.250000
vt 0.375000 0.000000
vt 0.625000 0.000000
vt 0.625000 0.250000
vt 0.375000 0.250000
vt 0.625000 0.500000
vt 0.375000 0.500000
vt 0.625000 0.750000
vt 0.375000 0.750000
vt 0.625000 1.000000
vt 0.375000 1.000000
vt 0.875000 0.000000
vt 0.875000 0.250000
vt 0.125000 0.000000
vt 0.125000 0.250000
vt 0.375000 0.000000
vt 0.625000 0.000000
vt 0.625000 0.250000
vt 0.375000 0.250000
vt 0.625000 0.500000
vt 0.375000 0.500000
vt 0.625000 0.750000
vt 0.375000 0.750000
vt 0.625000 1.000000
vt 0.375000 1.000000
vt 0.875000 0.000000
vt 0.875000 0.250000
vt 0.125000 0.000000
vt 0.125000 0.250000
vt 0.438424 0.250000
vt 0.438424 0.000000
vt 0.625000 0.000000
vt 0.625000 0.250000
vt 0.438424 0.500000
vt 0.625000 0.500000
vt 0.438424 0.750000
vt 0.625000 0.750000
vt 0.438424 1.000000
vt 0.625000 1.000000
vt 0.875000 0.000000
vt 0.875000 0.250000
vt 0.125000 0.000000
vt 0.375000 0.000000
vt 0.375000 0.250000
vt 0.125000 0.250000
vt 0.375000 0.750000
vt 0.375000 1.000000
vt 0.375000 0.500000
vn 0.000000 0.000000 1.000000
vn 0.000000 0.000000 1.000000
vn 0.000000 0.000000 1.000000
vn 0.000000 0.000000 1.000000
vn 0.000000 1.000000 0.000000
vn 0.000000 1.000000 0.000000
vn 0.000000 1.000000 0.000000
vn 0.000000 1.000000 0.000000
vn 0.000000 0.000000 -1.000000
vn 0.000000 0.000000 -1.000000
vn 0.000000 0.000000 -1.000000
vn 0.000000 0.000000 -1.000000
vn 0.000000 -1.000000 0.000000
vn 0.000000 -1.000000 0.000000
vn 0.000000 -1.000000 0.000000
vn 0.000000 -1.000000 0.000000
vn 1.000000 0.000000 0.000000
vn 1.000000 0.000000 0.000000
vn 1.000000 0.000000 0.000000
vn 1.000000 0.000000 0.000000
vn 0.000000 0.000000 1.000000
vn 0.000000 0.000000 1.000000
vn 0.000000 0.000000 1.000000
vn 0.000000 0.000000 1.000000
vn 0.000000 1.000000 0.000000
vn 0.000000 1.000000 0.000000
vn 0.000000 1.000000 0.000000
vn 0.000000 1.000000 0.000000
vn 0.000000 0.000000 -1.000000
vn 0.000000 0.000000 -1.000000
vn 0.000000 0.000000 -1.000000
vn 0.000000 0.000000 -1.000000
vn 0.000000 -1.000000 0.000000
vn 0.000000 -1.000000 0.000000
vn 0.000000 -1.000000 0.000000
vn 0.000000 -1.000000 0.000000
vn 1.000000 0.000000 0.000000
vn 1.000000 0.000000 0.000000
vn 1.000000 0.000000 0.000000
vn 1.000000 0.000000 0.000000
vn -1.000000 0.000000 0.000000
vn -1.000000 0.000000 0.000000
vn -1.000000 0.000000 0.000000
vn -1.000000 0.000000 0.000000
vn -0.081064 -0.996709 0.000000
vn -0.081064 -0.996709 0.000000
vn -0.081064 -0.996709 0.000000
vn -0.081064 -0.996709 0.000000
vn 0.000000 0.000000 -1.000000
vn 0.000000 0.000000 -1.000000
vn 0.000000 1.000000 0.000000
vn 0.000000 1.000000 0.000000
vn 0.000000 0.000000 1.000000
vn 0.000000 0.000000 1.000000
vn 0.000000 0.000000 1.000000
vn 0.000000 0.000000 1.000000
vn 0.000000 1.000000 0.000000
vn 0.000000 1.000000 0.000000
vn 0.000000 0.000000 -1.000000
vn 0.000000 0.000000 -1.000000
vn 0.099763 -0.995011 0.000000
vn 0.099763 -0.995011 0.000000
vn 0.099763 -0.995011 0.000000
vn 0.099763 -0.995011 0.000000
vn 0.000000 0.000000 -1.000000
vn 0.000000 0.000000 -1.000000
vn 0.000000 0.000000 -1.000000
vn 0.000000 0.000000 -1.000000
vn 1.000000 0.000000 0.000000
vn 1.000000 0.000000 0.000000
vn 1.000000 0.000000 0.000000
vn 1.000000 0.000000 0.000000
vn 0.000000 0.000000 1.000000
vn 0.000000 0.000000 1.000000
vn 0.000000 0.000000 1.000000
vn 0.000000 0.000000 1.000000
vn -1.000000 0.000000 0.000000
vn -1.000000 0.000000 0.000000
vn -1.000000 0.000000 0.000000
vn -1.000000 0.000000 0.000000
vn -1.000000 0.000000 0.000000
vn -1.000000 0.000000 0.000000
vn -1.000000 0.000000 0.000000
vn -1.000000 0.000000 0.000000
vn 0.000000 0.000000 -1.000000
vn 0.000000 0.000000 -1.000000
vn 0.000000 0.000000 -1.000000
vn 0.000000 0.000000 -1.000000
vn 0.975884 -0.218290 0.000000
vn 0.975884 -0.218290 0.000000
vn 0.975884 -0.218290 0.000000
vn 0.975884 -0.218290 0.000000
vn 0.000000 0.000000 1.000000
vn 0.000000 0.000000 1.000000
vn 0.000000 0.000000 1.000000
vn 0.000000 0.000000 1.000000
vn 0.000000 0.000000 1.000000
vn 0.000000 0.000000 1.000000
vn 0.000000 0.000000 1.000000
vn 0.000000 0.000000 1.000000
vn 0.000000 1.000000 0.000000
vn 0.000000 1.000000 0.000000
vn 0.000000 1.000000 0.000000
vn 0.000000 1.000000 0.000000
vn 0.000000 0.000000 -1.000000
vn 0.000000 0.000000 -1.000000
vn 0.000000 0.000000 -1.000000
vn 0.000000 0.000000 -1.000000
vn 0.000000 -1.000000 0.000000
vn 0.000000 -1.000000 0.000000
vn 0.000000 -1.000000 0.000000
vn 0.000000 -1.000000 0.000000
vn 1.000000 0.000000 0.000000
vn 1.000000 0.000000 0.000000
vn 1.000000 0.000000 0.000000
vn 1.000000 0.000000 0.000000
vn -1.000000 0.000000 0.000000
vn -1.000000 0.000000 0.000000
vn -1.000000 0.000000 0.000000
vn -1.000000 0.000000 0.000000
vn 0.000000 0.000000 1.000000
vn 0.000000 0.000000 1.000000
vn 0.000000 0.000000 1.000000
vn 0.000000 0.000000 1.000000
vn 0.000000 1.000000 0.000000
vn 0.000000 1.000000 0.000000
vn 0.000000 1.000000 0.000000
vn 0.000000 1.000000 0.000000
vn 0.000000 0.000000 -1.000000
vn 0.000000 0.000000 -1.000000
vn 0.000000 0.000000 -1.000000
vn 0.000000 0.000000 -1.000000
vn 0.000000 -1.000000 0.000000
vn 0.000000 -1.000000 0.000000
vn 0.000000 -1.000000 0.000000
vn 0.000000 -1.000000 0.000000
vn 1.000000 0.000000 0.000000
vn 1.000000 0.000000 0.000000
vn 1.000000 0.000000 0.000000
vn 1.000000 0.000000 0.000000
vn -1.000000 0.000000 0.000000
vn -1.000000 0.000000 0.000000
vn -1.000000 0.000000 0.000000
vn -1.000000 0.000000 0.000000
vn 0.000000 0.000000 1.000000
vn 0.000000 0.000000 1.000000
vn 0.000000 0.000000 1.000000
vn 0.000000 0.000000 1.000000
vn 0.383766 0.923431 0.000000
vn 0.383766 0.923431 0.000000
vn 0.383766 0.923431 0.000000
vn 0.383766 0.923431 0.000000
vn 0.000000 0.000000 -1.000000
vn 0.000000 0.000000 -1.000000
vn 0.000000 0.000000 -1.000000
vn 0.000000 0.000000 -1.000000
vn -0.383785 -0.923422 0.000000
vn -0.383785 -0.923422 0.000000
vn -0.383785 -0.923422 0.000000
vn -0.383785 -0.923422 0.000000
vn 0.923418 -0.383797 0.000000
vn 0.923418 -0.383797 0.000000
vn 0.923418 -0.383797 0.000000
vn 0.923418 -0.383797 0.000000
vn -0.923418 0.383797 0.000000
vn -0.923418 0.383797 0.000000
vn -0.923418 0.383797 0.000000
vn -0.923418 0.383797 0.000000
vn 0.000001 0.000000 -1.000000
vn 0.000001 0.000000 -1.000000
vn 0.000001 0.000000 -1.000000
vn 0.000001 0.000000 -1.000000
vn 0.727229 -0.686395 0.000000
vn 0.727229 -0.686395 0.000000
vn 0.727229 -0.686395 0.000000
vn 0.727229 -0.686395 0.000000
vn 0.000000 0.000000 1.000000
vn 0.000000 0.000000 1.000000
vn 0.000000 0.000000 1.000000
vn 0.000000 0.000000 1.000000
vn -0.727185 0.686442 0.000000
vn -0.727185 0.686442 0.000000
vn -0.727185 0.686442 0.000000
vn -0.727185 0.686442 0.000000
vn 0.000000 0.000000 1.000000
vn 0.000000 0.000000 1.000000
vn 0.000000 0.000000 1.000000
vn 0.000000 0.000000 1.000000
vn 0.000000 1.000000 0.000000
vn 0.000000 1.000000 0.000000
vn 0.000000 1.000000 0.000000
vn 0.000000 1.000000 0.000000
vn 0.000000 0.000000 -1.000000
vn 0.000000 0.000000 -1.000000
vn 0.000000 0.000000 -1.000000
vn 0.000000 0.000000 -1.000000
vn 0.000000 -1.000000 0.000000
vn 0.000000 -1.000000 0.000000
vn 0.000000 -1.000000 0.000000
vn 0.000000 -1.000000 0.000000
vn 1.000000 0.000000 0.000000
vn 1.000000 0.000000 0.000000
vn 1.000000 0.000000 0.000000
vn 1.000000 0.000000 0.000000
vn -1.000000 0.000000 0.000000
vn -1.000000 0.000000 0.000000
vn -1.000000 0.000000 0.000000
vn -1.000000 0.000000 0.000000
vn 0.000000 0.000000 1.000000
vn 0.000000 0.000000 1.000000
vn 0.000000 0.000000 1.000000
vn 0.000000 0.000000 1.000000
vn 0.000000 1.000000 0.000000
vn 0.000000 1.000000 0.000000
vn 0.000000 1.000000 0.000000
vn 0.000000 1.000000 0.000000
vn 0.000000 0.000000 -1.000000
vn 0.000000 0.000000 -1.000000
vn 0.000000 0.000000 -1.000000
vn 0.000000 0.000000 -1.000000
vn 0.000000 -1.000000 0.000000
vn 0.000000 -1.000000 0.000000
vn 0.000000 -1.000000 0.000000
vn 0.000000 -1.000000 0.000000
vn 1.000000 0.000000 0.000000
vn 1.000000 0.000000 0.000000
vn 1.000000 0.000000 0.000000
vn 1.000000 0.000000 0.000000
vn -1.000000 0.000000 0.000000
vn -1.000000 0.000000 0.000000
vn -1.000000 0.000000 0.000000
vn -1.000000 0.000000 0.000000
vn 0.000001 0.000000 1.000000
vn 0.000001 0.000000 1.000000
vn 0.000001 0.000000 1.000000
vn 0.000001 0.000000 1.000000
vn -0.519026 0.854759 0.000000
vn -0.519026 0.854759 0.000000
vn -0.519026 0.854759 0.000000
vn -0.519026 0.854759 0.000000
vn -0.000001 0.000000 -1.000000
vn -0.000001 0.000000 -1.000000
vn -0.000001 0.000000 -1.000000
vn -0.000001 0.000000 -1.000000
vn 0.519051 -0.854743 0.000000
vn 0.519051 -0.854743 0.000000
vn 0.519051 -0.854743 0.000000
vn 0.519051 -0.854743 0.000000
vn 0.854724 0.519083 0.000000
vn 0.854724 0.519083 0.000000
vn 0.854724 0.519083 0.000000
vn 0.854724 0.519083 0.000000
vn -0.854727 -0.519078 0.000000
vn -0.854727 -0.519078 0.000000
vn -0.854727 -0.519078 0.000000
vn -0.854727 -0.519078 0.000000
vn 0.000000 0.000000 1.000000
vn 0.000000 0.000000 1.000000
vn 0.000000 0.000000 1.000000
vn 0.000000 0.000000 1.000000
vn 0.000000 1.000000 0.000000
vn 0.000000 1.000000 0.000000
vn 0.000000 1.000000 0.000000
vn 0.000000 1.000000 0.000000
vn 0.000000 0.000000 -1.000000
vn 0.000000 0.000000 -1.000000
vn 0.000000 0.000000 -1.000000
vn 0.000000 0.000000 -1.000000
vn -0.270284 -0.962781 0.000000
vn -0.270284 -0.962781 0.000000
vn -0.429952 -0.902852 0.000000
vn -0.429952 -0.902852 0.000000
vn 1.000000 0.000000 0.000000
vn 1.000000 0.000000 0.000000
vn 1.000000 0.000000 0.000000
vn 1.000000 0.000000 0.000000
vn -1.000000 0.000000 0.000000
vn -1.000000 0.000000 0.000000
vn -1.000000 0.000000 0.000000
vn -1.000000 0.000000 0.000000
vn 0.000000 -1.000000 0.000000
vn 0.000000 -1.000000 0.000000
vn 0.000000 0.000000 -1.000000
vn 0.000000 0.000000 -1.000000
vn 0.000000 1.000000 0.000000
vn 0.000000 1.000000 0.000000
vn 0.000000 0.000000 1.000000
vn 0.000000 0.000000 1.000000
s off
g pCube36
usemtl initialShadingGroup
f 1/1/1 2/2/2 4/4/3 3/3/4
f 3/3/5 4/4/6 6/6/7 5/5/8
f 5/5/9 6/6/10 8/8/11 7/7/12
f 7/7/13 8/8/14 2/10/15 1/9/16
f 2/2/17 8/11/18 6/12/19 4/4/20
s 1
f 20/13/21 17/14/22 21/15/23 22/16/24
s 2
f 19/17/25 20/13/26 22/16/27 23/18/28
s 3
f 18/19/29 19/17/30 23/18/31 24/20/32
s off
f 17/21/33 18/19/34 24/20/35 21/22/36
f 10/23/37 16/24/38 14/25/39 12/26/40
f 15/27/41 9/28/42 11/29/43 13/30/44
f 25/31/45 26/32/46 27/33/47 28/34/48
s 3
f 13/35/49 19/17/30 18/19/29 15/36/50
s 2
f 11/29/51 20/13/26 19/17/25 13/35/52
s 1
f 9/28/53 17/14/22 20/13/21 11/29/54
f 22/16/24 21/15/23 10/23/55 12/26/56
s 2
f 23/18/28 22/16/27 12/26/57 14/37/58
s 3
f 24/20/32 23/18/31 14/37/59 16/38/60
s off
f 30/39/61 29/40/62 31/41/63 32/42/64
f 15/36/65 18/19/66 26/32/67 25/31/68
f 18/19/69 17/21/70 27/33/71 26/32/72
f 17/21/73 9/43/74 28/34/75 27/33/76
f 9/43/77 15/36/78 25/31/79 28/34/80
f 21/22/81 24/20/82 29/40/83 30/39/84
f 24/20/85 16/38/86 31/41/87 29/40/88
f 16/38/89 10/44/90 32/42/91 31/41/92
f 10/44/93 21/22/94 30/39/95 32/42/96
f 33/45/97 34/46/98 36/47/99 35/48/100
f 35/48/101 36/47/102 38/49/103 37/50/104
f 37/50/105 38/49/106 40/51/107 39/52/108
f 39/52/109 40/51/110 34/53/111 33/54/112
f 34/46/113 40/55/114 38/56/115 36/47/116
f 39/57/117 33/45/118 35/48/119 37/58/120
f 41/59/121 42/60/122 44/61/123 43/62/124
f 43/62/125 44/61/126 46/63/127 45/64/128
f 45/64/129 46/63/130 48/65/131 47/66/132
f 47/66/133 48/65/134 42/67/135 41/68/136
f 42/60/137 48/69/138 46/70/139 44/61/140
f 47/71/141 41/59/142 43/62/143 45/72/144
f 49/73/145 50/74/146 52/75/147 51/76/148
f 51/76/149 52/75/150 54/77/151 53/78/152
f 53/78/153 54/77/154 56/79/155 55/80/156
f 57/81/157 58/82/158 59/83/159 60/84/160
f 50/74/161 56/85/162 54/86/163 52/75/164
f 55/87/165 49/73/166 51/76/167 53/88/168
f 55/80/169 56/79/170 58/82/171 57/81/172
f 56/79/173 50/89/174 59/83/175 58/82/176
f 50/89/177 49/90/178 60/84/179 59/83/180
f 49/90/181 55/80/182 57/81/183 60/84/184
f 61/91/185 62/92/186 64/93/187 63/94/188
f 63/94/189 64/93/190 66/95/191 65/96/192
f 65/96/193 66/95/194 68/97/195 67/98/196
f 67/98/197 68/97/198 62/99/199 61/100/200
f 62/92/201 68/101/202 66/102/203 64/93/204
f 67/103/205 61/91/206 63/94/207 65/104/208
f 69/105/209 70/106/210 72/107/211 71/108/212
f 71/108/213 72/107/214 74/109/215 73/110/216
f 73/110/217 74/109/218 76/111/219 75/112/220
f 75/112/221 76/111/222 70/113/223 69/114/224
f 70/106/225 76/115/226 74/116/227 72/107/228
f 75/117/229 69/105/230 71/108/231 73/118/232
f 77/119/233 78/120/234 80/121/235 79/122/236
f 79/122/237 80/121/238 82/123/239 81/124/240
f 81/124/241 82/123/242 84/125/243 83/126/244
f 83/126/245 84/125/246 78/127/247 77/128/248
f 78/120/249 84/129/250 82/130/251 80/121/252
f 83/131/253 77/119/254 79/122/255 81/132/256
s 4
f 96/133/257 93/134/258 86/135/259 88/136/260
s 5
f 95/137/261 96/133/262 88/136/263 90/138/264
s 6
f 94/139/265 95/137/266 90/138/267 92/140/268
s 7
f 93/141/269 94/139/270 92/140/271 86/142/272
s off
f 86/135/273 92/143/274 90/144/275 88/136/276
f 91/145/277 85/146/278 87/147/279 89/148/280
s 7
f 91/149/281 94/139/270 93/141/269 85/150/282
s 6
f 89/151/283 95/137/266 94/139/265 91/149/284
s 5
f 87/147/285 96/133/262 95/137/261 89/151/286
s 4
f 85/146/287 93/134/258 96/133/257 87/147/288
