# This file uses meters as units for non-parametric coordinates.

mtllib magnet.mtl
g default
v 200.402111 -4.583763 22.921890
v 196.410147 -4.583763 22.921890
v 200.402111 4.583763 22.921890
v 196.410147 4.583763 22.921890
v 200.402111 4.583763 -9.389468
v 196.410147 4.583763 -9.389468
v 200.402111 -4.583763 -9.389468
v 196.410147 -4.583763 -9.389468
v 198.277798 -4.583763 28.238319
v 194.754702 -4.583763 26.361210
v 194.754702 4.583763 26.361210
v 198.277798 4.583763 28.238319
v 194.957745 -4.583763 31.733136
v 192.544416 -4.583763 28.553266
v 192.544416 4.583763 28.553266
v 194.957745 4.583763 31.733136
v 191.646352 -4.583763 33.592769
v 190.013596 -4.583763 29.949984
v 190.013596 4.583763 29.949984
v 191.646352 4.583763 33.592769
v 188.356627 -4.583763 34.282906
v 187.144744 -4.583763 30.479340
v 187.144744 4.583763 30.479340
v 188.356627 4.583763 34.282906
v 185.640193 -4.583763 34.374380
v 185.640193 -4.583763 30.387865
v 185.640193 4.583763 30.387865
v 185.640193 4.583763 34.374380
v 170.908869 -4.583763 22.921890
v 174.900833 -4.583763 22.921890
v 170.908869 4.583763 22.921890
v 174.900833 4.583763 22.921890
v 170.908869 4.583763 -9.389468
v 174.900833 4.583763 -9.389468
v 170.908869 -4.583763 -9.389468
v 174.900833 -4.583763 -9.389468
v 173.033182 -4.583763 28.238319
v 176.556278 -4.583763 26.361210
v 176.556278 4.583763 26.361210
v 173.033182 4.583763 28.238319
v 176.353234 -4.583763 31.733136
v 178.766564 -4.583763 28.553266
v 178.766564 4.583763 28.553266
v 176.353234 4.583763 31.733136
v 179.664628 -4.583763 33.592769
v 181.297383 -4.583763 29.949984
v 181.297383 4.583763 29.949984
v 179.664628 4.583763 33.592769
v 182.954353 -4.583763 34.282906
v 184.166236 -4.583763 30.479340
v 184.166236 4.583763 30.479340
v 182.954353 4.583763 34.282906
v 185.670786 -4.583763 34.374380
v 185.670786 -4.583763 30.387865
v 185.670786 4.583763 30.387865
v 185.670786 4.583763 34.374380
vt 0.375000 0.000000
vt 0.625000 0.000000
vt 0.375000 0.250000
vt 0.625000 0.250000
vt 0.375000 0.500000
vt 0.625000 0.500000
vt 0.375000 0.750000
vt 0.625000 0.750000
vt 0.375000 1.000000
vt 0.625000 1.000000
vt 0.875000 0.000000
vt 0.875000 0.250000
vt 0.125000 0.000000
vt 0.125000 0.250000
vt 0.375000 0.000000
vt 0.625000 0.000000
vt 0.625000 0.250000
vt 0.375000 0.250000
vt 0.375000 0.000000
vt 0.625000 0.000000
vt 0.625000 0.250000
vt 0.375000 0.250000
vt 0.375000 0.000000
vt 0.625000 0.000000
vt 0.625000 0.250000
vt 0.375000 0.250000
vt 0.375000 0.000000
vt 0.625000 0.000000
vt 0.625000 0.250000
vt 0.375000 0.250000
vt 0.375000 0.000000
vt 0.625000 0.000000
vt 0.625000 0.250000
vt 0.375000 0.250000
vt 0.375000 0.000000
vt 0.625000 0.000000
vt 0.625000 0.250000
vt 0.375000 0.250000
vt 0.375000 0.250000
vt 0.625000 0.250000
vt 0.625000 0.500000
vt 0.375000 0.500000
vt 0.625000 0.750000
vt 0.375000 0.750000
vt 0.625000 1.000000
vt 0.375000 1.000000
vt 0.625000 0.000000
vt 0.875000 0.000000
vt 0.875000 0.250000
vt 0.125000 0.000000
vt 0.375000 0.000000
vt 0.125000 0.250000
vt 0.625000 0.000000
vt 0.375000 0.000000
vt 0.625000 0.250000
vt 0.375000 0.250000
vt 0.625000 0.000000
vt 0.375000 0.000000
vt 0.625000 0.250000
vt 0.375000 0.250000
vt 0.625000 0.000000
vt 0.375000 0.000000
vt 0.625000 0.250000
vt 0.375000 0.250000
vt 0.625000 0.000000
vt 0.375000 0.000000
vt 0.625000 0.250000
vt 0.375000 0.250000
vn -1.000000 0.000000 0.000000
vn -1.000000 0.000000 0.000000
vn -1.000000 0.000000 0.000000
vn -1.000000 0.000000 0.000000
vn 0.000000 1.000000 0.000000
vn 0.000000 1.000000 0.000000
vn 0.000000 1.000000 0.000000
vn 0.000000 1.000000 0.000000
vn 0.000000 0.000000 -1.000000
vn 0.000000 0.000000 -1.000000
vn 0.000000 0.000000 -1.000000
vn 0.000000 0.000000 -1.000000
vn 0.000000 -1.000000 0.000000
vn 0.000000 -1.000000 0.000000
vn 0.000000 -1.000000 0.000000
vn 0.000000 -1.000000 0.000000
vn -1.000000 0.000000 0.000000
vn -1.000000 0.000000 0.000000
vn -1.000000 0.000000 0.000000
vn -1.000000 0.000000 0.000000
vn 1.000000 0.000000 0.000000
vn 1.000000 0.000000 0.000000
vn 1.000000 0.000000 0.000000
vn 1.000000 0.000000 0.000000
vn 0.000000 -1.000000 0.000000
vn 0.000000 -1.000000 0.000000
vn 0.000000 -1.000000 0.000000
vn 0.000000 -1.000000 0.000000
vn -0.901055 0.000000 -0.433704
vn -0.901055 0.000000 -0.433704
vn -0.901055 0.000000 -0.433704
vn -0.901055 0.000000 -0.433704
vn 0.000000 1.000000 0.000000
vn 0.000000 1.000000 0.000000
vn 0.000000 1.000000 0.000000
vn 0.000000 1.000000 0.000000
vn 0.928613 0.000000 0.371050
vn 0.928613 0.000000 0.371050
vn 0.928613 0.000000 0.371050
vn 0.928613 0.000000 0.371050
vn 0.000000 -1.000000 0.000000
vn 0.000000 -1.000000 0.000000
vn 0.000000 -1.000000 0.000000
vn 0.000000 -1.000000 0.000000
vn -0.704173 0.000000 -0.710029
vn -0.704173 0.000000 -0.710029
vn -0.704173 0.000000 -0.710029
vn -0.704173 0.000000 -0.710029
vn 0.000000 1.000000 0.000000
vn 0.000000 1.000000 0.000000
vn 0.000000 1.000000 0.000000
vn 0.000000 1.000000 0.000000
vn 0.725002 0.000000 0.688747
vn 0.725002 0.000000 0.688747
vn 0.725002 0.000000 0.688747
vn 0.725002 0.000000 0.688747
vn 0.000000 -1.000000 0.000000
vn 0.000000 -1.000000 0.000000
vn 0.000000 -1.000000 0.000000
vn 0.000000 -1.000000 0.000000
vn -0.483184 0.000000 -0.875519
vn -0.483184 0.000000 -0.875519
vn -0.483184 0.000000 -0.875519
vn -0.483184 0.000000 -0.875519
vn 0.000000 1.000000 0.000000
vn 0.000000 1.000000 0.000000
vn 0.000000 1.000000 0.000000
vn 0.000000 1.000000 0.000000
vn 0.489656 0.000000 0.871916
vn 0.489656 0.000000 0.871916
vn 0.489656 0.000000 0.871916
vn 0.489656 0.000000 0.871916
vn 0.000000 -1.000000 0.000000
vn 0.000000 -1.000000 0.000000
vn 0.000000 -1.000000 0.000000
vn 0.000000 -1.000000 0.000000
vn -0.181456 0.000000 -0.983399
vn -0.181456 0.000000 -0.983399
vn -0.181456 0.000000 -0.983399
vn -0.181456 0.000000 -0.983399
vn 0.000000 1.000000 0.000000
vn 0.000000 1.000000 0.000000
vn 0.000000 1.000000 0.000000
vn 0.000000 1.000000 0.000000
vn 0.205316 0.000000 0.978696
vn 0.205316 0.000000 0.978696
vn 0.205316 0.000000 0.978696
vn 0.205316 0.000000 0.978696
vn 0.000000 -1.000000 0.000000
vn 0.000000 -1.000000 0.000000
vn 0.000000 -1.000000 0.000000
vn 0.000000 -1.000000 0.000000
vn 0.060686 0.000000 -0.998157
vn 0.060686 0.000000 -0.998157
vn 0.060686 0.000000 -0.998157
vn 0.060686 0.000000 -0.998157
vn 0.000000 1.000000 0.000000
vn 0.000000 1.000000 0.000000
vn 0.000000 1.000000 0.000000
vn 0.000000 1.000000 0.000000
vn 0.033655 0.000000 0.999434
vn 0.033655 0.000000 0.999434
vn 0.033655 0.000000 0.999434
vn 0.033655 0.000000 0.999434
vn 1.000000 0.000000 0.000000
vn 1.000000 0.000000 0.000000
vn 1.000000 0.000000 0.000000
vn 1.000000 0.000000 0.000000
vn 0.000000 1.000000 0.000000
vn 0.000000 1.000000 0.000000
vn 0.000000 1.000000 0.000000
vn 0.000000 1.000000 0.000000
vn 0.000000 0.000000 -1.000000
vn 0.000000 0.000000 -1.000000
vn 0.000000 0.000000 -1.000000
vn 0.000000 0.000000 -1.000000
vn 0.000000 -1.000000 0.000000
vn 0.000000 -1.000000 0.000000
vn 0.000000 -1.000000 0.000000
vn 0.000000 -1.000000 0.000000
vn 1.000000 0.000000 0.000000
vn 1.000000 0.000000 0.000000
vn 1.000000 0.000000 0.000000
vn 1.000000 0.000000 0.000000
vn -1.000000 0.000000 0.000000
vn -1.000000 0.000000 0.000000
vn -1.000000 0.000000 0.000000
vn -1.000000 0.000000 0.000000
vn 0.000000 -1.000000 0.000000
vn 0.000000 -1.000000 0.000000
vn 0.000000 -1.000000 0.000000
vn 0.000000 -1.000000 0.000000
vn 0.901055 0.000000 -0.433704
vn 0.901055 0.000000 -0.433704
vn 0.901055 0.000000 -0.433704
vn 0.901055 0.000000 -0.433704
vn 0.000000 1.000000 0.000000
vn 0.000000 1.000000 0.000000
vn 0.000000 1.000000 0.000000
vn 0.000000 1.000000 0.000000
vn -0.928613 0.000000 0.371050
vn -0.928613 0.000000 0.371050
vn -0.928613 0.000000 0.371050
vn -0.928613 0.000000 0.371050
vn 0.000000 -1.000000 0.000000
vn 0.000000 -1.000000 0.000000
vn 0.000000 -1.000000 0.000000
vn 0.000000 -1.000000 0.000000
vn 0.704173 0.000000 -0.710029
vn 0.704173 0.000000 -0.710029
vn 0.704173 0.000000 -0.710029
vn 0.704173 0.000000 -0.710029
vn 0.000000 1.000000 0.000000
vn 0.000000 1.000000 0.000000
vn 0.000000 1.000000 0.000000
vn 0.000000 1.000000 0.000000
vn -0.725002 0.000000 0.688747
vn -0.725002 0.000000 0.688747
vn -0.725002 0.000000 0.688747
vn -0.725002 0.000000 0.688747
vn 0.000000 -1.000000 0.000000
vn 0.000000 -1.000000 0.000000
vn 0.000000 -1.000000 0.000000
vn 0.000000 -1.000000 0.000000
vn 0.483184 0.000000 -0.875519
vn 0.483184 0.000000 -0.875519
vn 0.483184 0.000000 -0.875519
vn 0.483184 0.000000 -0.875519
vn 0.000000 1.000000 0.000000
vn 0.000000 1.000000 0.000000
vn 0.000000 1.000000 0.000000
vn 0.000000 1.000000 0.000000
vn -0.489656 0.000000 0.871916
vn -0.489656 0.000000 0.871916
vn -0.489656 0.000000 0.871916
vn -0.489656 0.000000 0.871916
vn 0.000000 -1.000000 0.000000
vn 0.000000 -1.000000 0.000000
vn 0.000000 -1.000000 0.000000
vn 0.000000 -1.000000 0.000000
vn 0.181456 0.000000 -0.983399
vn 0.181456 0.000000 -0.983399
vn 0.181456 0.000000 -0.983399
vn 0.181456 0.000000 -0.983399
vn 0.000000 1.000000 0.000000
vn 0.000000 1.000000 0.000000
vn 0.000000 1.000000 0.000000
vn 0.000000 1.000000 0.000000
vn -0.205316 0.000000 0.978696
vn -0.205316 0.000000 0.978696
vn -0.205316 0.000000 0.978696
vn -0.205316 0.000000 0.978696
vn 0.000000 -1.000000 0.000000
vn 0.000000 -1.000000 0.000000
vn 0.000000 -1.000000 0.000000
vn 0.000000 -1.000000 0.000000
vn -0.060686 0.000000 -0.998157
vn -0.060686 0.000000 -0.998157
vn -0.060686 0.000000 -0.998157
vn -0.060686 0.000000 -0.998157
vn 0.000000 1.000000 0.000000
vn 0.000000 1.000000 0.000000
vn 0.000000 1.000000 0.000000
vn 0.000000 1.000000 0.000000
vn -0.033655 0.000000 0.999434
vn -0.033655 0.000000 0.999434
vn -0.033655 0.000000 0.999434
vn -0.033655 0.000000 0.999434
s off
g pCube23 Magnet
usemtl initialShadingGroup
f 25/31/1 28/34/2 27/33/3 26/32/4
f 3/3/5 5/5/6 6/6/7 4/4/8
f 5/5/9 7/7/10 8/8/11 6/6/12
f 7/7/13 1/9/14 2/10/15 8/8/16
f 2/2/17 4/4/18 6/12/19 8/11/20
f 7/13/21 5/14/22 3/3/23 1/1/24
f 1/1/25 9/15/26 10/16/27 2/2/28
f 2/2/29 10/16/30 11/17/31 4/4/32
f 4/4/33 11/17/34 12/18/35 3/3/36
f 3/3/37 12/18/38 9/15/39 1/1/40
f 9/15/41 13/19/42 14/20/43 10/16/44
f 10/16/45 14/20/46 15/21/47 11/17/48
f 11/17/49 15/21/50 16/22/51 12/18/52
f 12/18/53 16/22/54 13/19/55 9/15/56
f 13/19/57 17/23/58 18/24/59 14/20/60
f 14/20/61 18/24/62 19/25/63 15/21/64
f 15/21/65 19/25/66 20/26/67 16/22/68
f 16/22/69 20/26/70 17/23/71 13/19/72
f 17/23/73 21/27/74 22/28/75 18/24/76
f 18/24/77 22/28/78 23/29/79 19/25/80
f 19/25/81 23/29/82 24/30/83 20/26/84
f 20/26/85 24/30/86 21/27/87 17/23/88
f 21/27/89 25/31/90 26/32/91 22/28/92
f 22/28/93 26/32/94 27/33/95 23/29/96
f 23/29/97 27/33/98 28/34/99 24/30/100
f 24/30/101 28/34/102 25/31/103 21/27/104
f 53/35/105 54/36/106 55/37/107 56/38/108
f 31/39/109 32/40/110 34/41/111 33/42/112
f 33/42/113 34/41/114 36/43/115 35/44/116
f 35/44/117 36/43/118 30/45/119 29/46/120
f 30/47/121 36/48/122 34/49/123 32/40/124
f 35/50/125 29/51/126 31/39/127 33/52/128
f 29/51/129 30/47/130 38/53/131 37/54/132
f 30/47/133 32/40/134 39/55/135 38/53/136
f 32/40/137 31/39/138 40/56/139 39/55/140
f 31/39/141 29/51/142 37/54/143 40/56/144
f 37/54/145 38/53/146 42/57/147 41/58/148
f 38/53/149 39/55/150 43/59/151 42/57/152
f 39/55/153 40/56/154 44/60/155 43/59/156
f 40/56/157 37/54/158 41/58/159 44/60/160
f 41/58/161 42/57/162 46/61/163 45/62/164
f 42/57/165 43/59/166 47/63/167 46/61/168
f 43/59/169 44/60/170 48/64/171 47/63/172
f 44/60/173 41/58/174 45/62/175 48/64/176
f 45/62/177 46/61/178 50/65/179 49/66/180
f 46/61/181 47/63/182 51/67/183 50/65/184
f 47/63/185 48/64/186 52/68/187 51/67/188
f 48/64/189 45/62/190 49/66/191 52/68/192
f 49/66/193 50/65/194 54/36/195 53/35/196
f 50/65/197 51/67/198 55/37/199 54/36/200
f 51/67/201 52/68/202 56/38/203 55/37/204
f 52/68/205 49/66/206 53/35/207 56/38/208
