# This file uses meters as units for non-parametric coordinates.

mtllib milk.mtl
g default
v 1.281840 18.097885 -142.699768
v -1.281839 18.097885 -142.699768
v -2.563681 18.097885 -140.479568
v -1.281840 18.097885 -138.259354
v 1.281839 18.097885 -138.259354
v 2.563681 18.097885 -140.479568
v 2.563681 18.097885 -144.919983
v -2.563679 18.097885 -144.919983
v -5.127361 18.097885 -140.479568
v -2.563681 18.097885 -136.039139
v 2.563679 18.097885 -136.039139
v 5.127361 18.097885 -140.479568
v 3.845520 18.097885 -147.140167
v -3.845520 18.097885 -147.140167
v -7.691040 18.097885 -140.479568
v -3.845520 18.097885 -133.818924
v 3.845520 18.097885 -133.818924
v 7.691040 18.097885 -140.479568
v 3.845520 43.349438 -147.140167
v -3.845520 43.349438 -147.140167
v -7.691040 43.349438 -140.479568
v -3.845520 43.349438 -133.818924
v 3.845520 43.349438 -133.818924
v 7.691040 43.349438 -140.479568
v 2.563681 49.720360 -144.919983
v -2.563679 49.720360 -144.919983
v -5.127361 49.720360 -140.479568
v -2.563681 49.720360 -136.039139
v 2.563679 49.720360 -136.039139
v 5.127361 49.720360 -140.479568
v 2.226765 55.847733 -144.336411
v -2.226765 55.847733 -144.336411
v -4.453529 55.847733 -140.479568
v -2.226765 55.847733 -136.622681
v 2.226765 55.847733 -136.622681
v 4.453529 55.847733 -140.479568
v 0.000000 18.097885 -140.479568
v 2.593805 59.680176 -144.972137
v -2.593801 59.680176 -144.972137
v 0.000000 59.680176 -140.479553
v -5.187607 59.680176 -140.479553
v -2.593805 59.680176 -135.986969
v 2.593801 59.680176 -135.986969
v 5.187607 59.680176 -140.479553
v 2.593805 55.819321 -144.972137
v -2.593801 55.819321 -144.972137
v -5.187607 55.819321 -140.479553
v -2.593805 55.819321 -135.986969
v 2.593801 55.819321 -135.986969
v 5.187607 55.819321 -140.479553
vt 0.526042 0.111145
vt 0.473958 0.111145
vt 0.447917 0.156250
vt 0.473958 0.201355
vt 0.526042 0.201355
vt 0.552083 0.156250
vt 0.552083 0.066039
vt 0.447917 0.066039
vt 0.395833 0.156250
vt 0.447917 0.246461
vt 0.552083 0.246461
vt 0.604167 0.156250
vt 0.578125 0.020934
vt 0.421875 0.020934
vt 0.343750 0.156250
vt 0.421875 0.291566
vt 0.578125 0.291566
vt 0.656250 0.156250
vt 0.375000 0.312500
vt 0.416667 0.312500
vt 0.458333 0.312500
vt 0.500000 0.312500
vt 0.541667 0.312500
vt 0.583333 0.312500
vt 0.625000 0.312500
vt 0.375000 0.688440
vt 0.416667 0.688440
vt 0.458333 0.688440
vt 0.500000 0.688440
vt 0.541667 0.688440
vt 0.583333 0.688440
vt 0.625000 0.688440
vt 0.578125 0.708434
vt 0.421875 0.708434
vt 0.343750 0.843750
vt 0.421875 0.979066
vt 0.578125 0.979066
vt 0.656250 0.843750
vt 0.552083 0.753539
vt 0.447917 0.753539
vt 0.395833 0.843750
vt 0.447917 0.933961
vt 0.552083 0.933961
vt 0.604167 0.843750
vt 0.526042 0.798645
vt 0.473958 0.798645
vt 0.447917 0.843750
vt 0.473958 0.888855
vt 0.526042 0.888855
vt 0.552083 0.843750
vt 0.500000 0.150000
vt 0.500000 0.837500
vt 0.526042 0.888855
vt 0.473958 0.888855
vt 0.447917 0.843750
vt 0.473958 0.798645
vt 0.526042 0.798645
vt 0.552083 0.843750
vt 0.526042 0.888855
vt 0.473958 0.888855
vt 0.447917 0.843750
vt 0.473958 0.798645
vt 0.526042 0.798645
vt 0.552083 0.843750
vn 0.000000 -1.000000 -0.000000
vn 0.000000 -1.000000 -0.000000
vn 0.000000 -1.000000 0.000000
vn 0.000000 -1.000000 0.000000
vn 0.000000 -1.000000 -0.000000
vn 0.000000 -1.000000 -0.000000
vn 0.000000 -1.000000 0.000000
vn 0.000000 -1.000000 -0.000000
vn 0.000000 -1.000000 0.000000
vn 0.000000 -1.000000 -0.000000
vn 0.000000 -1.000000 0.000000
vn 0.000000 -1.000000 0.000000
vn 0.000000 -1.000000 0.000000
vn 0.000000 -1.000000 0.000000
vn 0.000000 -1.000000 0.000000
vn 0.000000 -1.000000 -0.000000
vn 0.000000 -1.000000 -0.000000
vn 0.000000 -1.000000 0.000000
vn 0.000000 0.000000 -1.000000
vn 0.000000 0.000000 -1.000000
vn 0.000000 0.000000 -1.000000
vn 0.000000 0.000000 -1.000000
vn -0.866024 0.000000 -0.500002
vn -0.866024 0.000000 -0.500002
vn -0.866024 0.000000 -0.500002
vn -0.866024 0.000000 -0.500002
vn -0.866026 0.000000 0.499999
vn -0.866026 0.000000 0.499999
vn -0.866026 0.000000 0.499999
vn -0.866026 0.000000 0.499999
vn 0.000000 0.000000 1.000000
vn 0.000000 0.000000 1.000000
vn 0.000000 0.000000 1.000000
vn 0.000000 0.000000 1.000000
vn 0.866026 0.000000 0.499999
vn 0.866026 0.000000 0.499999
vn 0.866026 0.000000 0.499999
vn 0.866026 0.000000 0.499999
vn 0.866024 0.000000 -0.500002
vn 0.866024 0.000000 -0.500002
vn 0.866024 0.000000 -0.500002
vn 0.866024 0.000000 -0.500002
vn 0.463853 0.373309 -0.803418
vn -0.463853 0.373309 -0.803418
vn -0.480147 0.278977 -0.831643
vn 0.480147 0.278977 -0.831643
vn -0.927706 0.373312 0.000000
vn -0.960298 0.278978 -0.000000
vn -0.463853 0.373312 0.803417
vn -0.480150 0.278978 0.831642
vn 0.463853 0.373312 0.803417
vn 0.480149 0.278978 0.831642
vn 0.927706 0.373312 0.000000
vn 0.960298 0.278978 0.000000
vn -0.497003 0.109314 -0.860836
vn 0.497003 0.109314 -0.860836
vn -0.994008 0.109312 -0.000000
vn -0.497005 0.109310 0.860835
vn 0.497005 0.109310 0.860835
vn 0.994008 0.109312 0.000000
vn 0.000000 -1.000000 -0.000000
vn 0.000000 1.000000 0.000001
vn 0.000000 1.000000 -0.000000
vn 0.000000 1.000000 0.000000
vn 0.000000 1.000000 -0.000001
vn 0.000000 1.000000 -0.000001
vn 0.000000 1.000000 0.000000
vn 0.000000 1.000000 0.000001
vn 0.000000 0.000000 -1.000000
vn 0.000000 0.000000 -1.000000
vn 0.000000 0.000000 -1.000000
vn 0.000000 0.000000 -1.000000
vn -0.866025 0.000000 -0.500001
vn -0.866025 0.000000 -0.500001
vn -0.866025 0.000000 -0.500001
vn -0.866025 0.000000 -0.500001
vn -0.866025 0.000000 0.500001
vn -0.866025 0.000000 0.500001
vn -0.866025 0.000000 0.500001
vn -0.866025 0.000000 0.500001
vn 0.000000 0.000000 1.000000
vn 0.000000 0.000000 1.000000
vn 0.000000 0.000000 1.000000
vn 0.000000 0.000000 1.000000
vn 0.866025 0.000000 0.500001
vn 0.866025 0.000000 0.500001
vn 0.866025 0.000000 0.500001
vn 0.866025 0.000000 0.500001
vn 0.866025 0.000000 -0.500001
vn 0.866025 0.000000 -0.500001
vn 0.866025 0.000000 -0.500001
vn 0.866025 0.000000 -0.500001
vn 0.000000 -0.999003 0.044641
vn 0.000000 -0.999003 0.044641
vn 0.000000 -0.999003 0.044641
vn 0.000000 -0.999003 0.044641
vn 0.038666 -0.999003 0.022321
vn 0.038666 -0.999003 0.022321
vn 0.038666 -0.999003 0.022321
vn 0.038666 -0.999003 0.022321
vn 0.038666 -0.999003 -0.022323
vn 0.038666 -0.999003 -0.022323
vn 0.038666 -0.999003 -0.022323
vn 0.038666 -0.999003 -0.022323
vn 0.000000 -0.999003 -0.044642
vn 0.000000 -0.999003 -0.044642
vn 0.000000 -0.999003 -0.044642
vn 0.000000 -0.999003 -0.044642
vn -0.038666 -0.999003 -0.022321
vn -0.038666 -0.999003 -0.022321
vn -0.038666 -0.999003 -0.022321
vn -0.038666 -0.999003 -0.022321
vn -0.038666 -0.999003 0.022323
vn -0.038666 -0.999003 0.022323
vn -0.038666 -0.999003 0.022323
vn -0.038666 -0.999003 0.022323
s 1
g BottleOfMilk
usemtl initialShadingGroup
f 1/1/1 2/2/2 8/8/3 7/7/4
f 2/2/2 3/3/5 9/9/6 8/8/3
f 3/3/5 4/4/7 10/10/8 9/9/6
f 4/4/7 5/5/9 11/11/10 10/10/8
f 5/5/9 6/6/11 12/12/12 11/11/10
f 6/6/11 1/1/1 7/7/4 12/12/12
f 7/7/4 8/8/3 14/14/13 13/13/14
f 8/8/3 9/9/6 15/15/15 14/14/13
f 9/9/6 10/10/8 16/16/16 15/15/15
f 10/10/8 11/11/10 17/17/17 16/16/16
f 11/11/10 12/12/12 18/18/18 17/17/17
f 12/12/12 7/7/4 13/13/14 18/18/18
s off
f 13/19/19 14/20/20 20/27/21 19/26/22
f 14/20/23 15/21/24 21/28/25 20/27/26
f 15/21/27 16/22/28 22/29/29 21/28/30
f 16/22/31 17/23/32 23/30/33 22/29/34
f 17/23/35 18/24/36 24/31/37 23/30/38
f 18/24/39 13/25/40 19/32/41 24/31/42
s 2
f 19/37/43 20/36/44 26/42/45 25/43/46
f 20/36/44 21/35/47 27/41/48 26/42/45
f 21/35/47 22/34/49 28/40/50 27/41/48
f 22/34/49 23/33/51 29/39/52 28/40/50
f 23/33/51 24/38/53 30/44/54 29/39/52
f 24/38/53 19/37/43 25/43/46 30/44/54
f 25/43/46 26/42/45 32/48/55 31/49/56
f 26/42/45 27/41/48 33/47/57 32/48/55
f 27/41/48 28/40/50 34/46/58 33/47/57
f 28/40/50 29/39/52 35/45/59 34/46/58
f 29/39/52 30/44/54 36/50/60 35/45/59
f 30/44/54 25/43/46 31/49/56 36/50/60
s 1
f 2/2/2 1/1/1 37/51/61
f 3/3/5 2/2/2 37/51/61
f 4/4/7 3/3/5 37/51/61
f 5/5/9 4/4/7 37/51/61
f 6/6/11 5/5/9 37/51/61
f 1/1/1 6/6/11 37/51/61
s 3
f 38/53/62 39/54/63 40/52/64
f 39/54/63 41/55/65 40/52/64
f 41/55/65 42/56/66 40/52/64
f 42/56/66 43/57/67 40/52/64
f 43/57/67 44/58/68 40/52/64
f 44/58/68 38/53/62 40/52/64
s off
f 45/59/69 46/60/70 39/54/71 38/53/72
f 46/60/73 47/61/74 41/55/75 39/54/76
f 47/61/77 48/62/78 42/56/79 41/55/80
f 48/62/81 49/63/82 43/57/83 42/56/84
f 49/63/85 50/64/86 44/58/87 43/57/88
f 50/64/89 45/59/90 38/53/91 44/58/92
f 31/49/93 32/48/94 46/60/95 45/59/96
f 32/48/97 33/47/98 47/61/99 46/60/100
f 33/47/101 34/46/102 48/62/103 47/61/104
f 34/46/105 35/45/106 49/63/107 48/62/108
f 35/45/109 36/50/110 50/64/111 49/63/112
f 36/50/113 31/49/114 45/59/115 50/64/116
