# This file uses centimeters as units for non-parametric coordinates.

mtllib slime.mtl
g default
v -0.105456 0.164700 -0.112171
v -0.128489 0.164700 -0.112171
v -0.140006 0.164700 -0.092223
v -0.128489 0.164700 -0.072276
v -0.105456 0.164700 -0.072276
v -0.093939 0.164700 -0.092223
v -0.097025 0.174676 -0.126773
v -0.136920 0.174676 -0.126773
v -0.156868 0.174676 -0.092223
v -0.136920 0.174676 -0.057673
v -0.097025 0.174676 -0.057673
v -0.077078 0.174676 -0.092223
v -0.093939 0.188304 -0.132118
v -0.140006 0.188304 -0.132118
v -0.163039 0.188304 -0.092223
v -0.140006 0.188304 -0.052329
v -0.093939 0.188304 -0.052329
v -0.070906 0.188304 -0.092223
v -0.097025 0.201931 -0.126773
v -0.136920 0.201931 -0.126773
v -0.156868 0.201931 -0.092223
v -0.136920 0.201931 -0.057673
v -0.097025 0.201931 -0.057673
v -0.077078 0.201931 -0.092223
v -0.105456 0.211907 -0.112171
v -0.128489 0.211907 -0.112171
v -0.140006 0.211907 -0.092223
v -0.128489 0.211907 -0.072276
v -0.105456 0.211907 -0.072276
v -0.093939 0.211907 -0.092223
v -0.116973 0.161049 -0.092223
v -0.116973 0.215559 -0.092223
vt 0.000000 0.166667
vt 0.166667 0.166667
vt 0.166667 0.333333
vt 0.000000 0.333333
vt 0.333333 0.166667
vt 0.333333 0.333333
vt 0.500000 0.166667
vt 0.500000 0.333333
vt 0.666667 0.166667
vt 0.666667 0.333333
vt 0.833333 0.166667
vt 0.833333 0.333333
vt 1.000000 0.166667
vt 1.000000 0.333333
vt 0.166667 0.500000
vt 0.000000 0.500000
vt 0.333333 0.500000
vt 0.500000 0.500000
vt 0.666667 0.500000
vt 0.833333 0.500000
vt 1.000000 0.500000
vt 0.166667 0.666667
vt 0.000000 0.666667
vt 0.333333 0.666667
vt 0.500000 0.666667
vt 0.666667 0.666667
vt 0.833333 0.666667
vt 1.000000 0.666667
vt 0.166667 0.833333
vt 0.000000 0.833333
vt 0.333333 0.833333
vt 0.500000 0.833333
vt 0.666667 0.833333
vt 0.833333 0.833333
vt 1.000000 0.833333
vt 0.083333 0.000000
vt 0.250000 0.000000
vt 0.416667 0.000000
vt 0.583333 0.000000
vt 0.750000 0.000000
vt 0.916667 0.000000
vt 0.083333 1.000000
vt 0.250000 1.000000
vt 0.416667 1.000000
vt 0.583333 1.000000
vt 0.750000 1.000000
vt 0.916667 1.000000
vn 0.000000 -0.825706 -0.564101
vn 0.000000 -0.825706 -0.564101
vn 0.000000 -0.825706 -0.564101
vn 0.000000 -0.825706 -0.564101
vn -0.488522 -0.825708 -0.282051
vn -0.488522 -0.825708 -0.282051
vn -0.488522 -0.825708 -0.282051
vn -0.488522 -0.825708 -0.282051
vn -0.488520 -0.825709 0.282050
vn -0.488520 -0.825709 0.282050
vn -0.488520 -0.825709 0.282050
vn -0.488520 -0.825709 0.282050
vn 0.000000 -0.825711 0.564094
vn 0.000000 -0.825710 0.564094
vn 0.000000 -0.825710 0.564094
vn 0.000000 -0.825710 0.564094
vn 0.488522 -0.825709 0.282048
vn 0.488522 -0.825709 0.282048
vn 0.488522 -0.825708 0.282048
vn 0.488522 -0.825709 0.282048
vn 0.488524 -0.825707 -0.282048
vn 0.488524 -0.825707 -0.282048
vn 0.488524 -0.825707 -0.282048
vn 0.488524 -0.825707 -0.282048
vn 0.000000 -0.365147 -0.930950
vn 0.000000 -0.365147 -0.930950
vn 0.000000 -0.365147 -0.930950
vn 0.000000 -0.365147 -0.930950
vn -0.806230 -0.365136 -0.465478
vn -0.806230 -0.365136 -0.465478
vn -0.806230 -0.365136 -0.465478
vn -0.806230 -0.365136 -0.465478
vn -0.806230 -0.365135 0.465478
vn -0.806230 -0.365135 0.465477
vn -0.806230 -0.365135 0.465478
vn -0.806230 -0.365135 0.465478
vn 0.000000 -0.365133 0.930955
vn 0.000000 -0.365133 0.930955
vn 0.000000 -0.365133 0.930956
vn 0.000000 -0.365133 0.930956
vn 0.806230 -0.365135 0.465478
vn 0.806230 -0.365135 0.465478
vn 0.806230 -0.365135 0.465478
vn 0.806230 -0.365135 0.465478
vn 0.806229 -0.365139 -0.465476
vn 0.806229 -0.365139 -0.465476
vn 0.806229 -0.365139 -0.465476
vn 0.806229 -0.365139 -0.465476
vn 0.000000 0.365147 -0.930950
vn 0.000000 0.365147 -0.930950
vn 0.000000 0.365147 -0.930950
vn 0.000000 0.365147 -0.930950
vn -0.806230 0.365136 -0.465477
vn -0.806230 0.365136 -0.465477
vn -0.806230 0.365136 -0.465477
vn -0.806230 0.365136 -0.465477
vn -0.806230 0.365135 0.465478
vn -0.806230 0.365135 0.465478
vn -0.806230 0.365135 0.465478
vn -0.806230 0.365135 0.465478
vn 0.000000 0.365133 0.930955
vn 0.000000 0.365133 0.930955
vn 0.000000 0.365133 0.930955
vn 0.000000 0.365133 0.930955
vn 0.806230 0.365135 0.465478
vn 0.806230 0.365135 0.465478
vn 0.806230 0.365135 0.465477
vn 0.806230 0.365135 0.465477
vn 0.806230 0.365139 -0.465476
vn 0.806229 0.365139 -0.465476
vn 0.806230 0.365139 -0.465476
vn 0.806230 0.365139 -0.465476
vn 0.000000 0.825706 -0.564101
vn 0.000000 0.825706 -0.564101
vn 0.000000 0.825706 -0.564101
vn 0.000000 0.825706 -0.564101
vn -0.488522 0.825708 -0.282050
vn -0.488522 0.825708 -0.282050
vn -0.488522 0.825708 -0.282050
vn -0.488522 0.825708 -0.282050
vn -0.488520 0.825709 0.282050
vn -0.488520 0.825709 0.282050
vn -0.488520 0.825709 0.282050
vn -0.488520 0.825709 0.282050
vn 0.000000 0.825710 0.564094
vn 0.000000 0.825710 0.564094
vn 0.000000 0.825710 0.564094
vn 0.000000 0.825710 0.564094
vn 0.488522 0.825709 0.282049
vn 0.488522 0.825708 0.282049
vn 0.488522 0.825709 0.282049
vn 0.488522 0.825709 0.282049
vn 0.488524 0.825707 -0.282049
vn 0.488524 0.825707 -0.282049
vn 0.488524 0.825707 -0.282049
vn 0.488524 0.825707 -0.282049
vn 0.000000 -0.983656 -0.180061
vn 0.000000 -0.983656 -0.180061
vn 0.000000 -0.983655 -0.180061
vn -0.155938 -0.983655 -0.090032
vn -0.155938 -0.983655 -0.090032
vn -0.155938 -0.983655 -0.090032
vn -0.155938 -0.983655 0.090033
vn -0.155938 -0.983655 0.090033
vn -0.155938 -0.983655 0.090033
vn 0.000000 -0.983655 0.180063
vn 0.000000 -0.983655 0.180063
vn 0.000000 -0.983655 0.180063
vn 0.155939 -0.983655 0.090033
vn 0.155939 -0.983655 0.090033
vn 0.155939 -0.983655 0.090033
vn 0.155939 -0.983655 -0.090031
vn 0.155939 -0.983655 -0.090031
vn 0.155939 -0.983655 -0.090031
vn 0.000000 0.983656 -0.180060
vn 0.000000 0.983656 -0.180060
vn 0.000000 0.983656 -0.180060
vn -0.155938 0.983655 -0.090032
vn -0.155938 0.983655 -0.090032
vn -0.155938 0.983655 -0.090032
vn -0.155938 0.983655 0.090032
vn -0.155938 0.983655 0.090032
vn -0.155938 0.983655 0.090032
vn 0.000000 0.983655 0.180062
vn 0.000000 0.983655 0.180062
vn 0.000000 0.983655 0.180062
vn 0.155939 0.983655 0.090033
vn 0.155939 0.983655 0.090033
vn 0.155939 0.983655 0.090033
vn 0.155939 0.983655 -0.090032
vn 0.155939 0.983655 -0.090032
vn 0.155939 0.983655 -0.090032
s off
g polySurface2 Blob
usemtl initialShadingGroup
f 1/1/1 2/2/2 8/3/3 7/4/4
f 2/2/5 3/5/6 9/6/7 8/3/8
f 3/5/9 4/7/10 10/8/11 9/6/12
f 4/7/13 5/9/14 11/10/15 10/8/16
f 5/9/17 6/11/18 12/12/19 11/10/20
f 6/11/21 1/13/22 7/14/23 12/12/24
f 7/4/25 8/3/26 14/15/27 13/16/28
f 8/3/29 9/6/30 15/17/31 14/15/32
f 9/6/33 10/8/34 16/18/35 15/17/36
f 10/8/37 11/10/38 17/19/39 16/18/40
f 11/10/41 12/12/42 18/20/43 17/19/44
f 12/12/45 7/14/46 13/21/47 18/20/48
f 13/16/49 14/15/50 20/22/51 19/23/52
f 14/15/53 15/17/54 21/24/55 20/22/56
f 15/17/57 16/18/58 22/25/59 21/24/60
f 16/18/61 17/19/62 23/26/63 22/25/64
f 17/19/65 18/20/66 24/27/67 23/26/68
f 18/20/69 13/21/70 19/28/71 24/27/72
f 19/23/73 20/22/74 26/29/75 25/30/76
f 20/22/77 21/24/78 27/31/79 26/29/80
f 21/24/81 22/25/82 28/32/83 27/31/84
f 22/25/85 23/26/86 29/33/87 28/32/88
f 23/26/89 24/27/90 30/34/91 29/33/92
f 24/27/93 19/28/94 25/35/95 30/34/96
f 2/2/97 1/1/98 31/36/99
f 3/5/100 2/2/101 31/37/102
f 4/7/103 3/5/104 31/38/105
f 5/9/106 4/7/107 31/39/108
f 6/11/109 5/9/110 31/40/111
f 1/13/112 6/11/113 31/41/114
f 25/30/115 26/29/116 32/42/117
f 26/29/118 27/31/119 32/43/120
f 27/31/121 28/32/122 32/44/123
f 28/32/124 29/33/125 32/45/126
f 29/33/127 30/34/128 32/46/129
f 30/34/130 25/35/131 32/47/132
g default
v -0.006891 0.148409 -0.166110
v -0.029924 0.148409 -0.166110
v -0.041441 0.148409 -0.146163
v -0.029924 0.148409 -0.126215
v -0.006891 0.148409 -0.126215
v 0.004626 0.148409 -0.146163
v 0.001540 0.165270 -0.180713
v -0.038355 0.165270 -0.180713
v -0.058303 0.165270 -0.146163
v -0.038355 0.165270 -0.111613
v 0.001540 0.165270 -0.111613
v 0.021487 0.165270 -0.146163
v 0.004626 0.188304 -0.186058
v -0.041441 0.188304 -0.186058
v -0.064474 0.188304 -0.146163
v -0.041441 0.188304 -0.106268
v 0.004626 0.188304 -0.106268
v 0.027659 0.188304 -0.146163
v 0.001540 0.211337 -0.180713
v -0.038355 0.211337 -0.180713
v -0.058303 0.211337 -0.146163
v -0.038355 0.211337 -0.111613
v 0.001540 0.211337 -0.111613
v 0.021487 0.211337 -0.146163
v -0.006891 0.228199 -0.166110
v -0.029924 0.228199 -0.166110
v -0.041441 0.228199 -0.146163
v -0.029924 0.228199 -0.126215
v -0.006891 0.228199 -0.126215
v 0.004626 0.228199 -0.146163
v -0.018408 0.142237 -0.146163
v -0.018408 0.234371 -0.146163
vt 0.000000 0.166667
vt 0.166667 0.166667
vt 0.166667 0.333333
vt 0.000000 0.333333
vt 0.333333 0.166667
vt 0.333333 0.333333
vt 0.500000 0.166667
vt 0.500000 0.333333
vt 0.666667 0.166667
vt 0.666667 0.333333
vt 0.833333 0.166667
vt 0.833333 0.333333
vt 1.000000 0.166667
vt 1.000000 0.333333
vt 0.166667 0.500000
vt 0.000000 0.500000
vt 0.333333 0.500000
vt 0.500000 0.500000
vt 0.666667 0.500000
vt 0.833333 0.500000
vt 1.000000 0.500000
vt 0.166667 0.666667
vt 0.000000 0.666667
vt 0.333333 0.666667
vt 0.500000 0.666667
vt 0.666667 0.666667
vt 0.833333 0.666667
vt 1.000000 0.666667
vt 0.166667 0.833333
vt 0.000000 0.833333
vt 0.333333 0.833333
vt 0.500000 0.833333
vt 0.666667 0.833333
vt 0.833333 0.833333
vt 1.000000 0.833333
vt 0.083333 0.000000
vt 0.250000 0.000000
vt 0.416667 0.000000
vt 0.583333 0.000000
vt 0.750000 0.000000
vt 0.916667 0.000000
vt 0.083333 1.000000
vt 0.250000 1.000000
vt 0.416667 1.000000
vt 0.583333 1.000000
vt 0.750000 1.000000
vt 0.916667 1.000000
vn 0.000000 -0.654650 -0.755932
vn 0.000000 -0.654650 -0.755932
vn 0.000000 -0.654650 -0.755932
vn 0.000000 -0.654650 -0.755932
vn -0.654655 -0.654651 -0.377966
vn -0.654655 -0.654651 -0.377966
vn -0.654655 -0.654651 -0.377966
vn -0.654655 -0.654651 -0.377966
vn -0.654655 -0.654651 0.377966
vn -0.654655 -0.654651 0.377966
vn -0.654655 -0.654651 0.377966
vn -0.654655 -0.654651 0.377966
vn 0.000000 -0.654650 0.755932
vn 0.000000 -0.654650 0.755932
vn 0.000000 -0.654650 0.755932
vn 0.000000 -0.654650 0.755932
vn 0.654653 -0.654654 0.377965
vn 0.654653 -0.654654 0.377965
vn 0.654653 -0.654654 0.377965
vn 0.654653 -0.654654 0.377965
vn 0.654653 -0.654654 -0.377965
vn 0.654653 -0.654654 -0.377965
vn 0.654653 -0.654654 -0.377965
vn 0.654653 -0.654654 -0.377965
vn 0.000000 -0.226052 -0.974115
vn 0.000000 -0.226052 -0.974115
vn 0.000000 -0.226052 -0.974115
vn 0.000000 -0.226052 -0.974115
vn -0.843609 -0.226049 -0.487059
vn -0.843609 -0.226049 -0.487059
vn -0.843609 -0.226049 -0.487059
vn -0.843609 -0.226049 -0.487059
vn -0.843609 -0.226049 0.487059
vn -0.843609 -0.226049 0.487059
vn -0.843609 -0.226049 0.487059
vn -0.843609 -0.226049 0.487059
vn 0.000000 -0.226052 0.974115
vn 0.000000 -0.226052 0.974115
vn 0.000000 -0.226052 0.974115
vn 0.000000 -0.226052 0.974115
vn 0.843609 -0.226047 0.487060
vn 0.843609 -0.226047 0.487060
vn 0.843609 -0.226047 0.487060
vn 0.843609 -0.226047 0.487060
vn 0.843609 -0.226047 -0.487060
vn 0.843609 -0.226047 -0.487060
vn 0.843609 -0.226047 -0.487060
vn 0.843609 -0.226047 -0.487060
vn 0.000000 0.226053 -0.974115
vn 0.000000 0.226053 -0.974115
vn 0.000000 0.226053 -0.974115
vn 0.000000 0.226053 -0.974115
vn -0.843609 0.226049 -0.487058
vn -0.843609 0.226049 -0.487058
vn -0.843609 0.226049 -0.487058
vn -0.843609 0.226049 -0.487058
vn -0.843609 0.226049 0.487058
vn -0.843609 0.226049 0.487058
vn -0.843609 0.226049 0.487058
vn -0.843609 0.226049 0.487058
vn 0.000000 0.226053 0.974115
vn 0.000000 0.226052 0.974115
vn 0.000000 0.226052 0.974115
vn 0.000000 0.226052 0.974115
vn 0.843609 0.226047 0.487060
vn 0.843609 0.226047 0.487060
vn 0.843609 0.226047 0.487060
vn 0.843609 0.226047 0.487060
vn 0.843609 0.226047 -0.487060
vn 0.843609 0.226047 -0.487060
vn 0.843609 0.226047 -0.487060
vn 0.843609 0.226047 -0.487060
vn 0.000000 0.654650 -0.755932
vn 0.000000 0.654650 -0.755932
vn 0.000000 0.654650 -0.755932
vn 0.000000 0.654650 -0.755932
vn -0.654655 0.654651 -0.377967
vn -0.654655 0.654651 -0.377967
vn -0.654655 0.654651 -0.377967
vn -0.654655 0.654651 -0.377967
vn -0.654655 0.654651 0.377966
vn -0.654655 0.654651 0.377966
vn -0.654655 0.654651 0.377966
vn -0.654655 0.654651 0.377966
vn 0.000000 0.654649 0.755933
vn 0.000000 0.654649 0.755933
vn 0.000000 0.654649 0.755933
vn 0.000000 0.654649 0.755933
vn 0.654653 0.654654 0.377965
vn 0.654653 0.654654 0.377965
vn 0.654653 0.654654 0.377965
vn 0.654653 0.654654 0.377965
vn 0.654653 0.654654 -0.377965
vn 0.654653 0.654654 -0.377965
vn 0.654653 0.654654 -0.377965
vn 0.654653 0.654654 -0.377965
vn 0.000000 -0.955319 -0.295577
vn 0.000000 -0.955319 -0.295577
vn 0.000000 -0.955319 -0.295577
vn -0.255977 -0.955319 -0.147788
vn -0.255977 -0.955319 -0.147788
vn -0.255977 -0.955319 -0.147788
vn -0.255977 -0.955319 0.147788
vn -0.255977 -0.955319 0.147788
vn -0.255977 -0.955319 0.147788
vn 0.000000 -0.955319 0.295577
vn 0.000000 -0.955319 0.295577
vn 0.000000 -0.955319 0.295577
vn 0.255977 -0.955319 0.147788
vn 0.255977 -0.955319 0.147788
vn 0.255977 -0.955319 0.147788
vn 0.255977 -0.955319 -0.147788
vn 0.255977 -0.955319 -0.147788
vn 0.255977 -0.955319 -0.147788
vn 0.000000 0.955319 -0.295577
vn 0.000000 0.955319 -0.295577
vn 0.000000 0.955319 -0.295577
vn -0.255977 0.955319 -0.147788
vn -0.255977 0.955319 -0.147788
vn -0.255977 0.955319 -0.147788
vn -0.255977 0.955319 0.147788
vn -0.255977 0.955319 0.147788
vn -0.255977 0.955319 0.147788
vn 0.000000 0.955319 0.295577
vn 0.000000 0.955319 0.295577
vn 0.000000 0.955319 0.295577
vn 0.255977 0.955319 0.147788
vn 0.255977 0.955319 0.147788
vn 0.255977 0.955319 0.147788
vn 0.255977 0.955319 -0.147788
vn 0.255977 0.955319 -0.147788
vn 0.255977 0.955319 -0.147788
s off
g Blob polySurface1
usemtl initialShadingGroup
f 33/48/133 34/49/134 40/50/135 39/51/136
f 34/49/137 35/52/138 41/53/139 40/50/140
f 35/52/141 36/54/142 42/55/143 41/53/144
f 36/54/145 37/56/146 43/57/147 42/55/148
f 37/56/149 38/58/150 44/59/151 43/57/152
f 38/58/153 33/60/154 39/61/155 44/59/156
f 39/51/157 40/50/158 46/62/159 45/63/160
f 40/50/161 41/53/162 47/64/163 46/62/164
f 41/53/165 42/55/166 48/65/167 47/64/168
f 42/55/169 43/57/170 49/66/171 48/65/172
f 43/57/173 44/59/174 50/67/175 49/66/176
f 44/59/177 39/61/178 45/68/179 50/67/180
f 45/63/181 46/62/182 52/69/183 51/70/184
f 46/62/185 47/64/186 53/71/187 52/69/188
f 47/64/189 48/65/190 54/72/191 53/71/192
f 48/65/193 49/66/194 55/73/195 54/72/196
f 49/66/197 50/67/198 56/74/199 55/73/200
f 50/67/201 45/68/202 51/75/203 56/74/204
f 51/70/205 52/69/206 58/76/207 57/77/208
f 52/69/209 53/71/210 59/78/211 58/76/212
f 53/71/213 54/72/214 60/79/215 59/78/216
f 54/72/217 55/73/218 61/80/219 60/79/220
f 55/73/221 56/74/222 62/81/223 61/80/224
f 56/74/225 51/75/226 57/82/227 62/81/228
f 34/49/229 33/48/230 63/83/231
f 35/52/232 34/49/233 63/84/234
f 36/54/235 35/52/236 63/85/237
f 37/56/238 36/54/239 63/86/240
f 38/58/241 37/56/242 63/87/243
f 33/60/244 38/58/245 63/88/246
f 57/77/247 58/76/248 64/89/249
f 58/76/250 59/78/251 64/90/252
f 59/78/253 60/79/254 64/91/255
f 60/79/256 61/80/257 64/92/258
f 61/80/259 62/81/260 64/93/261
f 62/81/262 57/82/263 64/94/264
g default
v 0.166392 0.000000 -0.292193
v -0.199104 0.000000 -0.292193
v -0.349140 0.000000 -0.024336
v -0.166392 0.000000 0.292193
v 0.166392 0.000000 0.292193
v 0.349140 0.000000 -0.024336
v 0.124175 0.040972 -0.229657
v -0.134730 0.044375 -0.224680
v -0.261934 0.040972 -0.006737
v -0.133231 0.040972 0.216183
v 0.124175 0.040972 0.216183
v 0.252878 0.040972 -0.006737
v 0.105946 0.121610 -0.181989
v -0.107208 0.125014 -0.177012
v -0.202935 0.121610 -0.006737
v -0.101754 0.121610 0.159350
v 0.096654 0.121610 0.159350
v 0.197835 0.121610 -0.006737
v 0.092390 0.222792 -0.158509
v -0.092154 0.215852 -0.158509
v -0.179779 0.215852 -0.006737
v -0.092154 0.227305 0.145035
v 0.083098 0.227305 0.145035
v 0.170724 0.213505 -0.006737
v 0.046063 0.296862 -0.094363
v -0.055119 0.296862 -0.094363
v -0.105709 0.296862 -0.006737
v -0.055119 0.296862 0.080889
v 0.046063 0.296862 0.080889
v 0.096654 0.287575 -0.006737
v -0.004528 0.000000 -0.006737
v -0.004528 0.323973 -0.006737
vt 0.000000 0.166667
vt 0.166667 0.166667
vt 0.166667 0.333333
vt 0.000000 0.333333
vt 0.333333 0.166667
vt 0.333333 0.333333
vt 0.500000 0.166667
vt 0.500000 0.333333
vt 0.666667 0.166667
vt 0.666667 0.333333
vt 0.833333 0.166667
vt 0.833333 0.333333
vt 1.000000 0.166667
vt 1.000000 0.333333
vt 0.166667 0.500000
vt 0.000000 0.500000
vt 0.333333 0.500000
vt 0.500000 0.500000
vt 0.666667 0.500000
vt 0.833333 0.500000
vt 1.000000 0.500000
vt 0.166667 0.666667
vt 0.000000 0.666667
vt 0.333333 0.666667
vt 0.500000 0.666667
vt 0.666667 0.666667
vt 0.833333 0.666667
vt 1.000000 0.666667
vt 0.166667 0.833333
vt 0.000000 0.833333
vt 0.333333 0.833333
vt 0.500000 0.833333
vt 0.666667 0.833333
vt 0.833333 0.833333
vt 1.000000 0.833333
vt 0.083333 0.000000
vt 0.250000 0.000000
vt 0.416667 0.000000
vt 0.583333 0.000000
vt 0.750000 0.000000
vt 0.916667 0.000000
vt 0.083333 1.000000
vt 0.250000 1.000000
vt 0.416667 1.000000
vt 0.583333 1.000000
vt 0.750000 1.000000
vt 0.916667 1.000000
vn 0.000183 0.836028 -0.548687
vn 0.000183 0.836028 -0.548687
vn 0.000183 0.836028 -0.548687
vn 0.000183 0.836028 -0.548687
vn -0.385438 0.897652 -0.213677
vn -0.385438 0.897652 -0.213677
vn -0.385438 0.897652 -0.213677
vn -0.385438 0.897652 -0.213677
vn -0.453167 0.852165 0.261636
vn -0.453167 0.852165 0.261636
vn -0.453167 0.852165 0.261636
vn -0.453167 0.852165 0.261636
vn 0.000000 0.880262 0.474487
vn 0.000000 0.880262 0.474487
vn 0.000000 0.880262 0.474487
vn 0.000000 0.880262 0.474487
vn 0.417044 0.876413 0.240780
vn 0.417044 0.876413 0.240780
vn 0.417044 0.876413 0.240780
vn 0.417044 0.876413 0.240780
vn 0.385147 0.889900 -0.244418
vn 0.385147 0.889900 -0.244418
vn 0.385147 0.889900 -0.244418
vn 0.385147 0.889900 -0.244418
vn -0.010801 0.509305 -0.860519
vn -0.010801 0.509305 -0.860519
vn -0.010801 0.509305 -0.860519
vn -0.010801 0.509305 -0.860519
vn -0.743430 0.522299 -0.417751
vn -0.743430 0.522299 -0.417751
vn -0.743430 0.522299 -0.417751
vn -0.743430 0.522299 -0.417751
vn -0.717782 0.552146 0.424174
vn -0.717782 0.552146 0.424174
vn -0.717782 0.552146 0.424174
vn -0.717782 0.552146 0.424174
vn 0.000000 0.576080 0.817393
vn 0.000000 0.576080 0.817393
vn 0.000000 0.576080 0.817393
vn 0.000000 0.576080 0.817393
vn 0.731686 0.526948 0.432391
vn 0.731686 0.526948 0.432391
vn 0.731686 0.526948 0.432391
vn 0.731686 0.526948 0.432391
vn 0.769471 0.475590 -0.426297
vn 0.769471 0.475590 -0.426297
vn 0.769471 0.475590 -0.426297
vn 0.769471 0.475590 -0.426297
vn -0.014124 0.213669 -0.976804
vn -0.014124 0.213669 -0.976804
vn -0.014124 0.213669 -0.976804
vn -0.014124 0.213669 -0.976804
vn -0.848127 0.223136 -0.480510
vn -0.848127 0.223136 -0.480510
vn -0.848128 0.223136 -0.480510
vn -0.848128 0.223136 -0.480510
vn -0.849277 0.174806 0.498168
vn -0.849277 0.174806 0.498168
vn -0.849277 0.174806 0.498168
vn -0.849277 0.174806 0.498168
vn 0.000000 0.134214 0.990952
vn 0.000000 0.134214 0.990952
vn 0.000000 0.134214 0.990952
vn 0.000000 0.134214 0.990952
vn 0.844645 0.209532 0.492618
vn 0.844645 0.209532 0.492618
vn 0.844645 0.209532 0.492618
vn 0.844645 0.209532 0.492618
vn 0.864690 0.236047 -0.443388
vn 0.864690 0.236047 -0.443388
vn 0.864690 0.236047 -0.443388
vn 0.864690 0.236047 -0.443388
vn -0.015467 0.636798 -0.770876
vn -0.015467 0.636798 -0.770876
vn -0.015467 0.636798 -0.770876
vn -0.015467 0.636798 -0.770876
vn -0.678947 0.620786 -0.391990
vn -0.678947 0.620786 -0.391990
vn -0.678947 0.620786 -0.391990
vn -0.678947 0.620786 -0.391990
vn -0.672378 0.648328 0.357182
vn -0.672378 0.648328 0.357182
vn -0.672378 0.648328 0.357182
vn -0.672378 0.648328 0.357182
vn 0.000000 0.677939 0.735118
vn 0.000000 0.677939 0.735118
vn 0.000000 0.677939 0.735118
vn 0.000000 0.677939 0.735118
vn 0.672657 0.665146 0.324213
vn 0.672657 0.665146 0.324213
vn 0.672657 0.665146 0.324213
vn 0.672657 0.665146 0.324213
vn 0.668809 0.676782 -0.307669
vn 0.668809 0.676782 -0.307669
vn 0.668809 0.676782 -0.307669
vn 0.668809 0.676782 -0.307669
vn 0.000000 -1.000000 0.000000
vn 0.000000 -1.000000 0.000000
vn 0.000000 -1.000000 0.000000
vn 0.000000 -1.000000 0.000000
vn 0.000000 -1.000000 0.000000
vn 0.000000 -1.000000 0.000000
vn 0.000000 -1.000000 0.000000
vn 0.000000 -1.000000 0.000000
vn 0.000000 -1.000000 0.000000
vn 0.000000 -1.000000 0.000000
vn 0.000000 -1.000000 0.000000
vn 0.000000 -1.000000 0.000000
vn 0.000000 -1.000000 0.000000
vn 0.000000 -1.000000 0.000000
vn 0.000000 -1.000000 0.000000
vn 0.000000 -1.000000 0.000000
vn 0.000000 -1.000000 0.000000
vn 0.000000 -1.000000 0.000000
vn 0.000000 0.955319 -0.295577
vn 0.000000 0.955319 -0.295577
vn 0.000000 0.955319 -0.295577
vn -0.255977 0.955319 -0.147788
vn -0.255977 0.955319 -0.147788
vn -0.255977 0.955319 -0.147788
vn -0.255977 0.955319 0.147788
vn -0.255977 0.955319 0.147788
vn -0.255977 0.955319 0.147788
vn 0.000000 0.955319 0.295577
vn 0.000000 0.955319 0.295577
vn 0.000000 0.955319 0.295577
vn 0.336960 0.936687 0.095269
vn 0.336960 0.936687 0.095269
vn 0.336960 0.936687 0.095269
vn 0.336960 0.936687 -0.095269
vn 0.336960 0.936687 -0.095269
vn 0.336960 0.936687 -0.095269
s off
g Blob polySurface3
usemtl initialShadingGroup
f 65/95/265 66/96/266 72/97/267 71/98/268
f 66/96/269 67/99/270 73/100/271 72/97/272
f 67/99/273 68/101/274 74/102/275 73/100/276
f 68/101/277 69/103/278 75/104/279 74/102/280
f 69/103/281 70/105/282 76/106/283 75/104/284
f 70/105/285 65/107/286 71/108/287 76/106/288
f 71/98/289 72/97/290 78/109/291 77/110/292
f 72/97/293 73/100/294 79/111/295 78/109/296
f 73/100/297 74/102/298 80/112/299 79/111/300
f 74/102/301 75/104/302 81/113/303 80/112/304
f 75/104/305 76/106/306 82/114/307 81/113/308
f 76/106/309 71/108/310 77/115/311 82/114/312
f 77/110/313 78/109/314 84/116/315 83/117/316
f 78/109/317 79/111/318 85/118/319 84/116/320
f 79/111/321 80/112/322 86/119/323 85/118/324
f 80/112/325 81/113/326 87/120/327 86/119/328
f 81/113/329 82/114/330 88/121/331 87/120/332
f 82/114/333 77/115/334 83/122/335 88/121/336
f 83/117/337 84/116/338 90/123/339 89/124/340
f 84/116/341 85/118/342 91/125/343 90/123/344
f 85/118/345 86/119/346 92/126/347 91/125/348
f 86/119/349 87/120/350 93/127/351 92/126/352
f 87/120/353 88/121/354 94/128/355 93/127/356
f 88/121/357 83/122/358 89/129/359 94/128/360
f 66/96/361 65/95/362 95/130/363
f 67/99/364 66/96/365 95/131/366
f 68/101/367 67/99/368 95/132/369
f 69/103/370 68/101/371 95/133/372
f 70/105/373 69/103/374 95/134/375
f 65/107/376 70/105/377 95/135/378
f 89/124/379 90/123/380 96/136/381
f 90/123/382 91/125/383 96/137/384
f 91/125/385 92/126/386 96/138/387
f 92/126/388 93/127/389 96/139/390
f 93/127/391 94/128/392 96/140/393
f 94/128/394 89/129/395 96/141/396
