# This file uses centimeters as units for non-parametric coordinates.

mtllib glass10.mtl
g default
v -2.126201 1.138790 0.104008
v -2.126201 0.580974 0.104008
v -1.115703 0.267431 0.104008
v -0.532180 0.659233 0.104008
v -1.124960 1.138790 0.104008
v -2.126201 1.138790 -0.062909
v -2.126201 0.580974 -0.062909
v -1.115703 0.267431 -0.062909
v -0.532180 0.659233 -0.062909
v -1.124960 1.138790 -0.062909
vt 0.434408 0.058710
vt 0.468713 0.144722
vt 0.433863 0.250000
vt 0.375000 0.250000
vt 0.375000 0.127542
vt 0.434408 0.058710
vt 0.375000 0.127542
vt 0.375000 0.250000
vt 0.433863 0.250000
vt 0.468713 0.144722
vn -0.000000 0.000000 1.000000
vn -0.000000 0.000000 1.000000
vn -0.000000 0.000000 1.000000
vn -0.000000 0.000000 1.000000
vn -0.000000 0.000000 1.000000
vn 0.000000 0.000000 -1.000000
vn 0.000000 0.000000 -1.000000
vn 0.000000 0.000000 -1.000000
vn 0.000000 0.000000 -1.000000
vn 0.000000 0.000000 -1.000000
vn 0.628950 0.777446 0.000000
vn 0.628950 0.777446 0.000000
vn 0.628950 0.777446 0.000000
vn 0.628950 0.777446 0.000000
vn 0.557442 -0.830216 0.000000
vn 0.557442 -0.830216 0.000000
vn 0.557442 -0.830216 0.000000
vn 0.557442 -0.830216 0.000000
vn -0.296348 -0.955080 0.000000
vn -0.296348 -0.955080 0.000000
vn -0.296348 -0.955080 0.000000
vn -0.296348 -0.955080 0.000000
vn -1.000000 0.000000 0.000000
vn -1.000000 0.000000 0.000000
vn -1.000000 0.000000 0.000000
vn -1.000000 0.000000 0.000000
vn 0.000000 1.000000 0.000000
vn 0.000000 1.000000 0.000000
vn 0.000000 1.000000 0.000000
vn 0.000000 1.000000 0.000000
s off
g glass10 polySurface54
usemtl initialShadingGroup
f 3/1/1 4/2/2 5/3/3 1/4/4 2/5/5
f 8/6/6 7/7/7 6/8/8 10/9/9 9/10/10
f 5/3/11 4/2/12 9/10/13 10/9/14
f 4/2/15 3/1/16 8/6/17 9/10/18
f 3/1/19 2/5/20 7/7/21 8/6/22
f 2/5/23 1/4/24 6/8/25 7/7/26
f 1/4/27 5/3/28 10/9/29 6/8/30
