# This file uses centimeters as units for non-parametric coordinates.

mtllib glass11.mtl
g default
v -2.126201 0.580974 0.104008
v -1.115703 0.267431 0.104008
v -2.126201 0.000000 0.104008
v -2.126201 0.580974 -0.062909
v -1.115703 0.267431 -0.062909
v -2.126201 0.000000 -0.062909
vt 0.375000 0.000000
vt 0.434408 0.058710
vt 0.375000 0.127542
vt 0.375000 0.000000
vt 0.375000 0.127542
vt 0.434408 0.058710
vn 0.000000 0.000000 1.000000
vn 0.000000 0.000000 1.000000
vn 0.000000 0.000000 1.000000
vn 0.000000 0.000000 -1.000000
vn 0.000000 0.000000 -1.000000
vn 0.000000 0.000000 -1.000000
vn 0.296348 0.955080 0.000000
vn 0.296348 0.955080 0.000000
vn 0.296348 0.955080 0.000000
vn 0.296348 0.955080 0.000000
vn 0.255845 -0.966718 0.000000
vn 0.255845 -0.966718 0.000000
vn 0.255845 -0.966718 0.000000
vn 0.255845 -0.966718 0.000000
vn -1.000000 0.000000 0.000000
vn -1.000000 0.000000 0.000000
vn -1.000000 0.000000 0.000000
vn -1.000000 0.000000 0.000000
s off
g glass11 polySurface54
usemtl initialShadingGroup
f 3/1/1 2/2/2 1/3/3
f 6/4/4 4/5/5 5/6/6
f 1/3/7 2/2/8 5/6/9 4/5/10
f 2/2/11 3/1/12 6/4/13 5/6/14
f 3/1/15 1/3/16 4/5/17 6/4/18
