# This file uses centimeters as units for non-parametric coordinates.

mtllib glass3.mtl
g default
v 2.126201 1.138790 -0.062909
v 0.951358 1.138790 -0.062909
v 1.708900 0.727152 -0.062909
v 2.126201 0.871813 -0.062909
v 1.174207 0.879695 -0.062909
v 2.126201 1.138790 0.104008
v 0.951358 1.138790 0.104008
v 1.708900 0.727152 0.104008
v 2.126201 0.871813 0.104008
v 1.174207 0.879695 0.104008
vt 0.555931 0.250000
vt 0.625000 0.250000
vt 0.625000 0.191390
vt 0.600467 0.159632
vt 0.569032 0.193121
vt 0.555931 0.250000
vt 0.569032 0.193121
vt 0.600467 0.159632
vt 0.625000 0.191390
vt 0.625000 0.250000
vn 0.000000 0.000000 -1.000000
vn 0.000000 0.000000 -1.000000
vn 0.000000 0.000000 -1.000000
vn 0.000000 0.000000 -1.000000
vn 0.000000 0.000000 -1.000000
vn 0.000000 0.000000 1.000000
vn 0.000000 0.000000 1.000000
vn 0.000000 0.000000 1.000000
vn 0.000000 0.000000 1.000000
vn 0.000000 0.000000 1.000000
vn 0.000000 1.000000 0.000000
vn 0.000000 1.000000 0.000000
vn 0.000000 1.000000 0.000000
vn 0.000000 1.000000 0.000000
vn -0.758145 -0.652086 0.000000
vn -0.758145 -0.652086 0.000000
vn -0.758145 -0.652086 0.000000
vn -0.758145 -0.652086 0.000000
vn -0.274345 -0.961631 0.000000
vn -0.274345 -0.961631 0.000000
vn -0.274345 -0.961631 0.000000
vn -0.274345 -0.961631 0.000000
vn 0.327538 -0.944838 0.000000
vn 0.327538 -0.944838 0.000000
vn 0.327538 -0.944838 0.000000
vn 0.327538 -0.944838 0.000000
vn 1.000000 0.000000 0.000000
vn 1.000000 0.000000 0.000000
vn 1.000000 0.000000 0.000000
vn 1.000000 0.000000 0.000000
s off
g glass3 polySurface54
usemtl initialShadingGroup
f 2/1/1 1/2/2 4/3/3 3/4/4 5/5/5
f 7/6/6 10/7/7 8/8/8 9/9/9 6/10/10
f 1/2/11 2/1/12 7/6/13 6/10/14
f 2/1/15 5/5/16 10/7/17 7/6/18
f 5/5/19 3/4/20 8/8/21 10/7/22
f 3/4/23 4/3/24 9/9/25 8/8/26
f 4/3/27 1/2/28 6/10/29 9/9/30
