# This file uses centimeters as units for non-parametric coordinates.

mtllib glass12.mtl
g default
v -1.124960 1.138790 -0.062909
v 0.303039 0.788660 -0.062909
v 0.483110 1.138790 -0.062909
v -0.532180 0.659233 -0.062909
v -1.124960 1.138790 0.104008
v 0.303039 0.788660 0.104008
v 0.483110 1.138790 0.104008
v -0.532180 0.659233 0.104008
vt 0.468713 0.144722
vt 0.433863 0.250000
vt 0.528402 0.250000
vt 0.517816 0.173136
vt 0.468713 0.144722
vt 0.517816 0.173136
vt 0.528402 0.250000
vt 0.433863 0.250000
vn 0.000000 0.000000 -1.000000
vn 0.000000 0.000000 -1.000000
vn 0.000000 0.000000 -1.000000
vn 0.000000 0.000000 -1.000000
vn 0.000000 0.000000 1.000000
vn 0.000000 0.000000 1.000000
vn 0.000000 0.000000 1.000000
vn 0.000000 0.000000 1.000000
vn 0.000000 1.000000 0.000000
vn 0.000000 1.000000 0.000000
vn 0.000000 1.000000 0.000000
vn 0.000000 1.000000 0.000000
vn -0.628950 -0.777446 0.000000
vn -0.628950 -0.777446 0.000000
vn -0.628950 -0.777446 0.000000
vn -0.628950 -0.777446 0.000000
vn 0.153134 -0.988205 0.000000
vn 0.153134 -0.988205 0.000000
vn 0.153134 -0.988205 0.000000
vn 0.153134 -0.988205 0.000000
vn 0.889284 -0.457356 0.000000
vn 0.889284 -0.457356 0.000000
vn 0.889284 -0.457356 0.000000
vn 0.889284 -0.457356 0.000000
s off
g glass12 polySurface54
usemtl initialShadingGroup
f 4/1/1 1/2/2 3/3/3 2/4/4
f 8/5/5 6/6/6 7/7/7 5/8/8
f 3/3/9 1/2/10 5/8/11 7/7/12
f 1/2/13 4/1/14 8/5/15 5/8/16
f 4/1/17 2/4/18 6/6/19 8/5/20
f 2/4/21 3/3/22 7/7/23 6/6/24
